<svg xmlns="http://www.w3.org/2000/svg" xmlns:xlink="http://www.w3.org/1999/xlink" width="100%" height="100%" viewBox="0 0 302.46 211.63">
  <defs>
    <linearGradient id="linear-gradient" x1="0.5" y1="1" x2="0.5" gradientUnits="objectBoundingBox">
      <stop offset="0" stop-color="gray" stop-opacity="0.251"/>
      <stop offset="0.54" stop-color="gray" stop-opacity="0.122"/>
      <stop offset="1" stop-color="gray" stop-opacity="0.102"/>
    </linearGradient>
  </defs>
  <g id="undraw_freelancer_b0my" transform="translate(0 0.012)">
    <ellipse id="Ellipse_22" data-name="Ellipse 22" cx="132.31" cy="37.475" rx="132.31" ry="37.475" transform="translate(0 136.668)" fill="#141e7a" opacity="0.1"/>
    <path id="Path_192" data-name="Path 192" d="M120.342,406.21a35.22,35.22,0,0,1,6.422,36.632c-8.322,21.888,14.269,58.262,14.269,58.262s-.243-.034-.69-.115c-30.282-5.352-45.331-39.985-28.49-65.717C118.112,425.706,123.237,414.486,120.342,406.21Z" transform="translate(-81.614 -322.725)" fill="#141e7a"/>
    <path id="Path_193" data-name="Path 193" d="M147.128,406.21s8.322,18.072,0,32.816S145.7,495.152,167.818,501.1" transform="translate(-108.399 -322.724)" fill="none" stroke="#535461" stroke-miterlimit="10" stroke-width="2"/>
    <path id="Path_194" data-name="Path 194" d="M70.25,597.591s16.825-2.681,18.349,12.4,32.344,17.167,32.344,17.167-.2.137-.578.386c-25.427,16.7-49.753,10.63-46.087-11.55C75.64,607.745,75.531,599.457,70.25,597.591Z" transform="translate(-57.782 -458.26)" fill="#141e7a"/>
    <path id="Path_195" data-name="Path 195" d="M70.25,597.591s16.825-2.681,18.349,12.4,32.344,17.167,32.344,17.167-.2.137-.578.386c-25.427,16.7-49.753,10.63-46.087-11.55C75.64,607.745,75.531,599.457,70.25,597.591Z" transform="translate(-57.782 -458.26)" fill="#f5f5f5" opacity="0.2"/>
    <path id="Path_196" data-name="Path 196" d="M70.25,598s13.062,2.867,11.986,14.741,19.394,26.124,38.722,14.825" transform="translate(-57.782 -457.806)" fill="none" stroke="#535461" stroke-miterlimit="10" stroke-width="2"/>
    <path id="Path_197" data-name="Path 197" d="M353.266,137.1c-1.836,8.714-11.26,13.084-16.54,19.585-9.95,12.252-6.075,30.148.238,44.48,2.113,4.8,4.512,9.878,3.616,15.023-1.091,6.294-6.889,10.894-12.977,13.334a39.736,39.736,0,0,1-34.579-2.761c-8.812-5.309-15.125-13.946-24.087-19.014-15-8.481-34.093-5.278-50.382.565-11.522,4.132-24.121,9.51-35.572,5.188-8.056-3.039-13.627-10.438-16.662-18.28-1.463-3.786-2.528-7.885-5.325-10.886a19.776,19.776,0,0,0-6.057-4.119c-20.307-9.753-45.96-4.528-65.673-15.35-13.318-7.3-21.847-21.081-25.622-35.449s-3.336-29.422-2.377-44.23c.681-10.515,1.9-21.746,8.841-29.857,7.338-8.578,19.919-11.774,31.314-10.139s21.7,7.448,30.778,14.3c11.358,8.563,21.866,19.221,35.794,22.69,9.485,2.361,19.462,1.069,29.246.622,16.356-.747,32.716.916,48.98,2.737,7.924.888,15.875,1.819,23.73,3.17q2.641.453,5.283.975,1.321.256,2.641.547c.687.146,1.371.3,2.055.455q1.619.368,3.228.768,4.62,1.151,9.15,2.648c10.5,3.472,18.912,9.773,28.826,14.176,6.461,2.871,13.506,3.664,19.623,7.317C348.289,120.1,355.2,127.935,353.266,137.1Z" transform="translate(-51.134 -44.79)" fill="#141e7a" opacity="0.1"/>
    <path id="Path_198" data-name="Path 198" d="M621.528,688.546s12.782-1.014,16.461,3.384,16.813,14.48,11.392,16.725-34.521-6.721-34.521-6.721Z" transform="translate(-462.682 -528.694)" fill="#ffb9b9"/>
    <path id="Path_199" data-name="Path 199" d="M330.027,168.692a6.665,6.665,0,0,0-5.436-6.061c-1.947-.311-4.121.239-5.794-.809a10.608,10.608,0,0,1-1.906-1.866,13.452,13.452,0,0,0-9.47-3.835,33.919,33.919,0,0,0-10.3,1.71c-6.705,1.931-13.79,4.764-17.357,10.76-5.424,9.128-.42,21.431-4.708,31.143-1.866,4.242-5.424,7.707-6.581,12.2-1.555,6,1.511,12.085,3.872,17.814a84.959,84.959,0,0,1,4.8,15.923c.949,4.814,1.477,9.818.407,14.617-.47,2.1-1.244,4.236-.827,6.344.622,3.191,3.707,5.2,6.512,6.842l.731.429c4.043,2.364,8.2,4.777,12.832,5.362a13.313,13.313,0,0,0,8.4-1.508,9.191,9.191,0,0,0,4.593-6.985c.236-3.269-1.583-6.329-1.975-9.585a2.914,2.914,0,0,1,.109-1.468,3.6,3.6,0,0,1,1.412-1.409,26.09,26.09,0,0,0,10.487-25.527c-1.2-6.512-4.932-12.987-3.126-19.36,1-3.521,3.57-6.372,5.013-9.734a16.34,16.34,0,0,0,.535-11.327c-.824-2.569-2.317-5.135-1.8-7.775.9-4.69,7.153-6.186,9.513-10.341a7.378,7.378,0,0,0-2.239-9.429" transform="translate(-207.252 -121.5)" fill="#b96b6b"/>
    <path id="Path_200" data-name="Path 200" d="M330.027,168.692a6.665,6.665,0,0,0-5.436-6.061c-1.947-.311-4.121.239-5.794-.809a10.608,10.608,0,0,1-1.906-1.866,13.452,13.452,0,0,0-9.47-3.835,33.919,33.919,0,0,0-10.3,1.71c-6.705,1.931-13.79,4.764-17.357,10.76-5.424,9.128-.42,21.431-4.708,31.143-1.866,4.242-5.424,7.707-6.581,12.2-1.555,6,1.511,12.085,3.872,17.814a84.959,84.959,0,0,1,4.8,15.923c.949,4.814,1.477,9.818.407,14.617-.47,2.1-1.244,4.236-.827,6.344.622,3.191,3.707,5.2,6.512,6.842l.731.429c4.043,2.364,8.2,4.777,12.832,5.362a13.313,13.313,0,0,0,8.4-1.508,9.191,9.191,0,0,0,4.593-6.985c.236-3.269-1.583-6.329-1.975-9.585a2.914,2.914,0,0,1,.109-1.468,3.6,3.6,0,0,1,1.412-1.409,26.09,26.09,0,0,0,10.487-25.527c-1.2-6.512-4.932-12.987-3.126-19.36,1-3.521,3.57-6.372,5.013-9.734a16.34,16.34,0,0,0,.535-11.327c-.824-2.569-2.317-5.135-1.8-7.775.9-4.69,7.153-6.186,9.513-10.341a7.378,7.378,0,0,0-2.239-9.429" transform="translate(-207.252 -121.5)" opacity="0.1"/>
    <path id="Path_201" data-name="Path 201" d="M330.364,596.695H263.5V560.93l37.32,14.306,29.545-14.306Z" transform="translate(-196.363 -419.089)" fill="#777b9b"/>
    <path id="Path_202" data-name="Path 202" d="M330.364,596.695H263.5V560.93l37.32,14.306,29.545-14.306Z" transform="translate(-196.363 -419.089)" opacity="0.1"/>
    <path id="Path_203" data-name="Path 203" d="M452.754,723.807s-12.129,2.9-13.373,8.21,7.153,4.83,7.153,4.83,11.818-2.416,13.373-12.076S452.754,723.807,452.754,723.807Z" transform="translate(-331.85 -550.582)" fill="#ffb9b9"/>
    <path id="Path_204" data-name="Path 204" d="M452.754,723.807s-12.129,2.9-13.373,8.21,7.153,4.83,7.153,4.83,11.818-2.416,13.373-12.076S452.754,723.807,452.754,723.807Z" transform="translate(-331.85 -550.582)" opacity="0.1"/>
    <path id="Path_205" data-name="Path 205" d="M352.251,751.715s-11.435.743-11.591,10.02c-.022,1.244,11.911,1.6,26.077-6.012s15.13-8.419,15.13-8.419-5.474-8.82-9.33-10.02S352.251,751.715,352.251,751.715Z" transform="translate(-260.119 -562.298)" fill="#cbcdda"/>
    <path id="Path_206" data-name="Path 206" d="M154.88,653.084s-13.062,10.885,11.2,26.124,47.583,12.44,47.583,12.44,25.3-2.995,29.134-14.872-18.871-21.826-18.871-21.826-24.88,0-36.076-7.153S154.88,653.084,154.88,653.084Z" transform="translate(-113.673 -499.159)" fill="#777b9b"/>
    <path id="Path_207" data-name="Path 207" d="M356.751,602.48s11.2,6.531,26.435,0c11.725-5.026,37.444-3.054,48.68-1.866a13,13,0,0,1,11.221,9.277c1.176,4.158.311,9.268-6.724,14.057-15.55,10.574-26.435,13.684-30.478,18.038s-15.55,6.531-15.55,6.531-14.617-2.177-14.617-5.287,13.373-18.349,13.373-18.349-19.593,18.038-39.808-6.22S356.751,602.48,356.751,602.48Z" transform="translate(-264.879 -467.215)" fill="#777b9b"/>
    <path id="Path_208" data-name="Path 208" d="M284.157,328.307l-39.5-27.057s18.946-12.847,20.572-24.329a9.33,9.33,0,0,0-1.291-6.459c-7.775-12.44,27.368,0,27.368,0a73.475,73.475,0,0,0,1.322,9.641c1.527,7.573,4.749,17.658,11.429,22.7C315.567,311.513,284.157,328.307,284.157,328.307Z" transform="translate(-189.805 -211.143)" fill="#ffb9b9"/>
    <path id="Path_209" data-name="Path 209" d="M332.862,280.09a23.032,23.032,0,0,1-27.4-3.169,9.33,9.33,0,0,0-1.291-6.459c-7.775-12.44,27.368,0,27.368,0a73.471,73.471,0,0,0,1.322,9.629Z" transform="translate(-231.769 -208.314)" opacity="0.1"/>
    <circle id="Ellipse_23" data-name="Ellipse 23" cx="23.014" cy="23.014" r="23.014" transform="translate(66.586 32.222)" fill="#ffb9b9"/>
    <path id="Path_210" data-name="Path 210" d="M231.275,338.82s-4.665,27.368-12.44,25.813S186.8,335.71,186.8,335.71s-25.191,8.4-21.148,28.923,8.086,37.942-.311,44.473-13.684,37.009-13.684,37.009,26.746-11.2,40.741-6.842,28.3,2.177,31.722-1.866,8.4-12.751,8.4-12.751-7.153-10.574-3.732-15.861,7.775-5.6,10.263-20.526,22.081-20.215,18.349-28.612S246.514,338.82,231.275,338.82Z" transform="translate(-113.874 -271.06)" opacity="0.1"/>
    <path id="Path_211" data-name="Path 211" d="M231.275,334.82s-4.665,27.368-12.44,25.813S186.8,331.71,186.8,331.71s-25.191,8.4-21.148,28.923,8.086,37.942-.311,44.473-13.684,37.009-13.684,37.009,26.746-11.2,40.741-6.842,28.3,2.177,31.722-1.866,8.4-12.751,8.4-12.751-7.153-10.574-3.732-15.861,7.775-5.6,10.263-20.526,22.081-20.215,18.349-28.612S246.514,334.82,231.275,334.82Z" transform="translate(-113.874 -267.949)" fill="#cbcdda"/>
    <path id="Path_212" data-name="Path 212" d="M458.014,700.019s12.44-3.11,16.794.622,18.971,11.507,13.995,14.617-35.143-.933-35.143-.933Z" transform="translate(-343.461 -535.831)" fill="#ffb9b9"/>
    <g id="Group_7" data-name="Group 7" transform="translate(37.786 63.761)" opacity="0.05">
      <path id="Path_213" data-name="Path 213" d="M288.5,360.633a3.321,3.321,0,0,0,2.137-.311c-8.64-3.334-31.059-28.612-31.059-28.612s-.883.3-2.3.908C261.566,337.379,281.572,359.249,288.5,360.633Z" transform="translate(-224.432 -331.71)"/>
      <path id="Path_214" data-name="Path 214" d="M375.836,407.789c8.577-3.3-15.861,13.684-18.349,28.612s-6.842,15.239-10.263,20.526,3.732,15.861,3.732,15.861-4.976,8.708-8.4,12.751c-1.959,2.317-7.492,4.015-14.489,4.23,8.44.267,15.357-1.583,17.6-4.23,3.421-4.043,8.4-12.751,8.4-12.751s-7.153-10.574-3.732-15.861,7.775-5.6,10.263-20.526S373.815,408.567,375.836,407.789Z" transform="translate(-273.207 -383.843)"/>
      <path id="Path_215" data-name="Path 215" d="M151.9,668.037c-.159.83-.239,1.3-.239,1.3s17.391-7.28,31.467-7.815C172.264,661.071,158.225,665.692,151.9,668.037Z" transform="translate(-151.66 -558.93)"/>
    </g>
    <path id="Path_216" data-name="Path 216" d="M453.562,403.71s2.8.311,5.6,14.928,13.684,28.612,13.684,28.612A67.758,67.758,0,0,1,482.8,466.22c3.732,11.2,20.37,25.968,26.279,26.59,0,0-11.351,11.351-10.107,14.461s-1.244,0-1.244,0-15.55-5.909-18.971-15.55S460.4,466.531,460.4,466.531s-19.9-38.564-20.837-44.784S453.562,403.71,453.562,403.71Z" transform="translate(-335.44 -332.51)" fill="#cbcdda"/>
    <path id="Path_217" data-name="Path 217" d="M209.16,572.21s23.947,2.8,29.234,10.263,29.778-4.335,29.778-4.335" transform="translate(-163.285 -435.894)" opacity="0.1"/>
    <path id="Path_218" data-name="Path 218" d="M227.171,420.48s10.263,37.631,13.995,42.3,32.655,42.918,46.339,40.43c0,0-4.043,17.416-6.842,18.038,0,0-28.3-27.99-37.942-27.679,0,0-17.727-14.617-19.593-21.77s-16.794-30.478-16.794-30.478-7.464-16.483-4.354-23.636S221.573,413.638,227.171,420.48Z" transform="translate(-158.334 -339.329)" opacity="0.1"/>
    <path id="Path_219" data-name="Path 219" d="M228.171,418.48s10.263,37.631,13.995,42.3,32.655,42.918,46.339,40.43c0,0-4.043,17.416-6.842,18.038,0,0-28.3-27.99-37.942-27.679,0,0-17.727-14.617-19.593-21.77s-16.794-30.478-16.794-30.478-7.464-16.483-4.354-23.636S222.573,411.638,228.171,418.48Z" transform="translate(-159.083 -337.951)" fill="#cbcdda"/>
    <path id="Path_220" data-name="Path 220" d="M278.027,149.692a6.665,6.665,0,0,0-5.436-6.061c-1.947-.311-4.121.239-5.794-.809a10.607,10.607,0,0,1-1.906-1.866,13.452,13.452,0,0,0-9.47-3.835,33.919,33.919,0,0,0-10.3,1.71c-6.705,1.931-13.79,4.764-17.357,10.761-5.424,9.128-.42,21.431-4.709,31.143-1.866,4.242-5.424,7.707-6.581,12.2-1.555,6,1.511,12.085,3.872,17.814a84.96,84.96,0,0,1,4.8,15.923c.949,4.814,1.477,9.818.407,14.617-.47,2.1-1.244,4.236-.827,6.344.622,3.191,3.707,5.2,6.512,6.842l.731.429c4.043,2.364,8.2,4.777,12.832,5.362a13.313,13.313,0,0,0,8.4-1.508,9.191,9.191,0,0,0,4.593-6.985c.236-3.269-1.583-6.329-1.975-9.585a2.914,2.914,0,0,1,.109-1.468,3.6,3.6,0,0,1,1.412-1.409,26.09,26.09,0,0,0,10.487-25.527c-1.2-6.512-4.932-12.987-3.126-19.36,1-3.52,3.57-6.372,5.013-9.734a16.34,16.34,0,0,0,.535-11.327c-.824-2.569-2.317-5.135-1.8-7.775.9-4.69,7.153-6.186,9.513-10.341a7.378,7.378,0,0,0-2.239-9.429" transform="translate(-168.542 -108.409)" opacity="0.1"/>
    <path id="Path_221" data-name="Path 221" d="M276.027,148.692a6.665,6.665,0,0,0-5.436-6.061c-1.947-.311-4.121.239-5.794-.809a10.608,10.608,0,0,1-1.906-1.866,13.452,13.452,0,0,0-9.47-3.835,33.919,33.919,0,0,0-10.3,1.71c-6.705,1.931-13.79,4.764-17.357,10.761-5.424,9.128-.42,21.431-4.709,31.143-1.866,4.242-5.424,7.707-6.581,12.2-1.555,6,1.511,12.085,3.872,17.814a84.96,84.96,0,0,1,4.8,15.923c.949,4.814,1.477,9.818.407,14.617-.47,2.1-1.244,4.236-.827,6.344.622,3.191,3.707,5.2,6.512,6.842l.731.429c4.043,2.364,8.2,4.777,12.832,5.362a13.313,13.313,0,0,0,8.4-1.508,9.191,9.191,0,0,0,4.593-6.985c.236-3.269-1.583-6.329-1.975-9.585a2.914,2.914,0,0,1,.109-1.468,3.6,3.6,0,0,1,1.412-1.409,26.09,26.09,0,0,0,10.487-25.527c-1.2-6.512-4.932-12.987-3.126-19.36,1-3.52,3.57-6.372,5.013-9.734a16.34,16.34,0,0,0,.535-11.327c-.824-2.569-2.317-5.135-1.8-7.775.9-4.69,7.153-6.186,9.513-10.341a7.378,7.378,0,0,0-2.239-9.429" transform="translate(-167.053 -107.72)" fill="#b96b6b"/>
    <path id="Path_222" data-name="Path 222" d="M455.726,799.24a3.629,3.629,0,0,0,1.191-1.8,1.6,1.6,0,0,0-.833-1.832,2.335,2.335,0,0,0-2.2.774,2.929,2.929,0,0,1-2.143,1.033,3.259,3.259,0,0,0,1.008-3.051,1.275,1.275,0,0,0-.28-.622c-.426-.454-1.194-.258-1.7.1-1.617,1.138-2.068,3.334-2.077,5.312a10.186,10.186,0,0,1-.031-2.177,2.248,2.248,0,0,0-.821-1.934,2.488,2.488,0,0,0-1.244-.3,2.59,2.59,0,0,0-2.034.578,2,2,0,0,0,.081,2.488,8.1,8.1,0,0,0,2.105,1.686,4.666,4.666,0,0,1,1.505,1.434,1.425,1.425,0,0,1,.112.255h4.55A12.7,12.7,0,0,0,455.726,799.24Z" transform="translate(-334.992 -601.063)" fill="#141e7a"/>
    <rect id="Rectangle_57" data-name="Rectangle 57" width="98.897" height="6.842" transform="translate(144.929 59.063)" fill="#141e7a" opacity="0.1"/>
    <rect id="Rectangle_58" data-name="Rectangle 58" width="98.897" height="6.842" transform="translate(144.929 83.739)" fill="#141e7a" opacity="0.1"/>
    <rect id="Rectangle_59" data-name="Rectangle 59" width="98.897" height="6.842" transform="translate(144.929 109.453)" fill="#141e7a" opacity="0.1"/>
    <rect id="Rectangle_60" data-name="Rectangle 60" width="6.22" height="17.727" transform="translate(162.186 43.853)" fill="#141e7a" opacity="0.1"/>
    <rect id="Rectangle_61" data-name="Rectangle 61" width="6.22" height="1.244" transform="translate(162.186 46.801)" fill="#141e7a" opacity="0.1"/>
    <rect id="Rectangle_62" data-name="Rectangle 62" width="6.22" height="1.244" transform="translate(162.186 54.889)" fill="#141e7a" opacity="0.1"/>
    <rect id="Rectangle_63" data-name="Rectangle 63" width="6.22" height="17.727" transform="translate(170.123 43.853)" fill="#141e7a" opacity="0.1"/>
    <rect id="Rectangle_64" data-name="Rectangle 64" width="6.22" height="1.244" transform="translate(170.123 46.801)" fill="#141e7a" opacity="0.1"/>
    <rect id="Rectangle_65" data-name="Rectangle 65" width="6.22" height="1.244" transform="translate(170.123 54.889)" fill="#141e7a" opacity="0.1"/>
    <rect id="Rectangle_66" data-name="Rectangle 66" width="6.22" height="17.727" transform="translate(178.061 43.853)" fill="#141e7a" opacity="0.1"/>
    <rect id="Rectangle_67" data-name="Rectangle 67" width="6.22" height="1.244" transform="translate(178.061 46.801)" fill="#141e7a" opacity="0.1"/>
    <rect id="Rectangle_68" data-name="Rectangle 68" width="6.22" height="1.244" transform="translate(178.061 54.889)" fill="#141e7a" opacity="0.1"/>
    <rect id="Rectangle_69" data-name="Rectangle 69" width="6.22" height="17.727" transform="translate(185.998 43.853)" fill="#141e7a" opacity="0.1"/>
    <rect id="Rectangle_70" data-name="Rectangle 70" width="6.22" height="1.244" transform="translate(185.998 46.801)" fill="#141e7a" opacity="0.1"/>
    <rect id="Rectangle_71" data-name="Rectangle 71" width="6.22" height="1.244" transform="translate(185.998 54.889)" fill="#141e7a" opacity="0.1"/>
    <rect id="Rectangle_72" data-name="Rectangle 72" width="6.22" height="17.727" transform="translate(193.935 43.853)" fill="#141e7a" opacity="0.1"/>
    <rect id="Rectangle_73" data-name="Rectangle 73" width="6.22" height="1.244" transform="translate(193.935 46.801)" fill="#141e7a" opacity="0.1"/>
    <rect id="Rectangle_74" data-name="Rectangle 74" width="6.22" height="1.244" transform="translate(193.935 54.889)" fill="#141e7a" opacity="0.1"/>
    <rect id="Rectangle_75" data-name="Rectangle 75" width="6.22" height="17.727" transform="translate(201.873 43.853)" fill="#141e7a" opacity="0.1"/>
    <rect id="Rectangle_76" data-name="Rectangle 76" width="6.22" height="1.244" transform="translate(201.873 46.801)" fill="#141e7a" opacity="0.1"/>
    <rect id="Rectangle_77" data-name="Rectangle 77" width="6.22" height="1.244" transform="translate(201.873 54.889)" fill="#141e7a" opacity="0.1"/>
    <rect id="Rectangle_78" data-name="Rectangle 78" width="6.22" height="17.727" transform="translate(209.81 43.853)" fill="#141e7a" opacity="0.1"/>
    <rect id="Rectangle_79" data-name="Rectangle 79" width="6.22" height="1.244" transform="translate(209.81 46.801)" fill="#141e7a" opacity="0.1"/>
    <rect id="Rectangle_80" data-name="Rectangle 80" width="6.22" height="1.244" transform="translate(209.81 54.889)" fill="#141e7a" opacity="0.1"/>
    <rect id="Rectangle_81" data-name="Rectangle 81" width="6.22" height="17.727" transform="matrix(0.894, -0.448, 0.448, 0.894, 206.463, 96.105)" fill="#141e7a" opacity="0.1"/>
    <rect id="Rectangle_82" data-name="Rectangle 82" width="6.22" height="1.244" transform="matrix(0.894, -0.448, 0.448, 0.894, 208.32, 99.359)" fill="#141e7a" opacity="0.1"/>
    <rect id="Rectangle_83" data-name="Rectangle 83" width="6.22" height="1.244" transform="matrix(0.894, -0.448, 0.448, 0.894, 211.994, 106.574)" fill="#141e7a" opacity="0.1"/>
    <rect id="Rectangle_84" data-name="Rectangle 84" width="6.22" height="17.727" transform="translate(162.186 68.559)" fill="#141e7a" opacity="0.1"/>
    <rect id="Rectangle_85" data-name="Rectangle 85" width="6.22" height="1.244" transform="translate(162.186 71.846)" fill="#141e7a" opacity="0.1"/>
    <rect id="Rectangle_86" data-name="Rectangle 86" width="6.22" height="1.244" transform="translate(162.186 79.933)" fill="#141e7a" opacity="0.1"/>
    <rect id="Rectangle_87" data-name="Rectangle 87" width="6.22" height="17.727" transform="translate(170.123 68.559)" fill="#141e7a" opacity="0.1"/>
    <rect id="Rectangle_88" data-name="Rectangle 88" width="6.22" height="1.244" transform="translate(170.123 71.846)" fill="#141e7a" opacity="0.1"/>
    <rect id="Rectangle_89" data-name="Rectangle 89" width="6.22" height="1.244" transform="translate(170.123 79.933)" fill="#141e7a" opacity="0.1"/>
    <rect id="Rectangle_90" data-name="Rectangle 90" width="6.22" height="17.727" transform="translate(178.061 68.559)" fill="#141e7a" opacity="0.1"/>
    <rect id="Rectangle_91" data-name="Rectangle 91" width="6.22" height="1.244" transform="translate(178.061 71.846)" fill="#141e7a" opacity="0.1"/>
    <rect id="Rectangle_92" data-name="Rectangle 92" width="6.22" height="1.244" transform="translate(178.061 79.933)" fill="#141e7a" opacity="0.1"/>
    <rect id="Rectangle_93" data-name="Rectangle 93" width="6.22" height="17.727" transform="translate(211.133 68.559)" fill="#141e7a" opacity="0.1"/>
    <rect id="Rectangle_94" data-name="Rectangle 94" width="6.22" height="1.244" transform="translate(211.133 71.846)" fill="#141e7a" opacity="0.1"/>
    <rect id="Rectangle_95" data-name="Rectangle 95" width="6.22" height="1.244" transform="translate(211.133 79.933)" fill="#141e7a" opacity="0.1"/>
    <rect id="Rectangle_96" data-name="Rectangle 96" width="6.22" height="17.727" transform="translate(219.07 68.559)" fill="#141e7a" opacity="0.1"/>
    <rect id="Rectangle_97" data-name="Rectangle 97" width="6.22" height="1.244" transform="translate(219.07 71.846)" fill="#141e7a" opacity="0.1"/>
    <rect id="Rectangle_98" data-name="Rectangle 98" width="6.22" height="1.244" transform="translate(219.07 79.933)" fill="#141e7a" opacity="0.1"/>
    <rect id="Rectangle_99" data-name="Rectangle 99" width="6.22" height="17.727" transform="translate(227.008 68.559)" fill="#141e7a" opacity="0.1"/>
    <rect id="Rectangle_100" data-name="Rectangle 100" width="6.22" height="1.244" transform="translate(227.008 71.846)" fill="#141e7a" opacity="0.1"/>
    <rect id="Rectangle_101" data-name="Rectangle 101" width="6.22" height="1.244" transform="translate(227.008 79.933)" fill="#141e7a" opacity="0.1"/>
    <rect id="Rectangle_102" data-name="Rectangle 102" width="6.22" height="17.727" transform="translate(162.186 93.78)" fill="#141e7a" opacity="0.1"/>
    <rect id="Rectangle_103" data-name="Rectangle 103" width="6.22" height="1.244" transform="translate(162.186 97.412)" fill="#141e7a" opacity="0.1"/>
    <rect id="Rectangle_104" data-name="Rectangle 104" width="6.22" height="1.244" transform="translate(162.186 105.5)" fill="#141e7a" opacity="0.1"/>
    <rect id="Rectangle_105" data-name="Rectangle 105" width="6.22" height="17.727" transform="translate(170.123 93.78)" fill="#141e7a" opacity="0.1"/>
    <rect id="Rectangle_106" data-name="Rectangle 106" width="6.22" height="1.244" transform="translate(170.123 97.412)" fill="#141e7a" opacity="0.1"/>
    <rect id="Rectangle_107" data-name="Rectangle 107" width="6.22" height="1.244" transform="translate(170.123 105.5)" fill="#141e7a" opacity="0.1"/>
    <rect id="Rectangle_108" data-name="Rectangle 108" width="6.22" height="17.727" transform="translate(178.061 93.78)" fill="#141e7a" opacity="0.1"/>
    <rect id="Rectangle_109" data-name="Rectangle 109" width="6.22" height="1.244" transform="translate(178.061 97.412)" fill="#141e7a" opacity="0.1"/>
    <rect id="Rectangle_110" data-name="Rectangle 110" width="6.22" height="1.244" transform="translate(178.061 105.5)" fill="#141e7a" opacity="0.1"/>
    <rect id="Rectangle_111" data-name="Rectangle 111" width="6.22" height="17.727" transform="translate(185.998 93.78)" fill="#141e7a" opacity="0.1"/>
    <rect id="Rectangle_112" data-name="Rectangle 112" width="6.22" height="1.244" transform="translate(185.998 97.412)" fill="#141e7a" opacity="0.1"/>
    <rect id="Rectangle_113" data-name="Rectangle 113" width="6.22" height="1.244" transform="translate(185.998 105.5)" fill="#141e7a" opacity="0.1"/>
    <rect id="Rectangle_114" data-name="Rectangle 114" width="6.22" height="17.727" transform="translate(193.935 93.78)" fill="#141e7a" opacity="0.1"/>
    <rect id="Rectangle_115" data-name="Rectangle 115" width="6.22" height="1.244" transform="translate(193.935 97.412)" fill="#141e7a" opacity="0.1"/>
    <rect id="Rectangle_116" data-name="Rectangle 116" width="6.22" height="1.244" transform="translate(193.935 105.5)" fill="#141e7a" opacity="0.1"/>
    <rect id="Rectangle_117" data-name="Rectangle 117" width="6.22" height="17.727" transform="translate(201.873 93.78)" fill="#141e7a" opacity="0.1"/>
    <rect id="Rectangle_118" data-name="Rectangle 118" width="6.22" height="1.244" transform="translate(201.873 97.412)" fill="#141e7a" opacity="0.1"/>
    <rect id="Rectangle_119" data-name="Rectangle 119" width="6.22" height="1.244" transform="translate(201.873 105.5)" fill="#141e7a" opacity="0.1"/>
    <path id="Path_223" data-name="Path 223" d="M859.38,217.665v16.147h-6.22V216.48Q856.282,217.03,859.38,217.665Z" transform="translate(-635.413 -172.288)" fill="#141e7a" opacity="0.1"/>
    <rect id="Rectangle_120" data-name="Rectangle 120" width="6.22" height="1.244" transform="translate(217.747 46.801)" fill="#141e7a" opacity="0.1"/>
    <rect id="Rectangle_121" data-name="Rectangle 121" width="6.22" height="1.244" transform="translate(217.747 54.889)" fill="#141e7a" opacity="0.1"/>
    <path id="Path_224" data-name="Path 224" d="M889.38,223.923v13.995h-6.22V222.43c.809.177,1.614.364,2.42.554Q887.489,223.431,889.38,223.923Z" transform="translate(-657.475 -176.632)" fill="#141e7a" opacity="0.1"/>
    <path id="Path_225" data-name="Path 225" d="M889.38,225.163v.311h-6.22V224.23h2.42Q887.489,224.672,889.38,225.163Z" transform="translate(-657.475 -177.426)" fill="#141e7a" opacity="0.1"/>
    <rect id="Rectangle_122" data-name="Rectangle 122" width="6.22" height="1.244" transform="translate(225.685 54.889)" fill="#141e7a" opacity="0.1"/>
    <circle id="Ellipse_24" data-name="Ellipse 24" cx="11.61" cy="11.61" r="11.61" transform="translate(34.014 31.851)" fill="#141e7a" opacity="0.1"/>
    <circle id="Ellipse_25" data-name="Ellipse 25" cx="9.852" cy="9.852" r="9.852" transform="translate(35.771 33.406)" fill="#141e7a" opacity="0.1"/>
    <circle id="Ellipse_26" data-name="Ellipse 26" cx="0.703" cy="0.703" r="0.703" transform="translate(44.92 41.594)" fill="#141e7a" opacity="0.1"/>
    <line id="Line_4" data-name="Line 4" x1="3.875" y2="6.78" transform="translate(45.972 42.91)" fill="none" stroke="#141e7a" stroke-miterlimit="10" stroke-width="1" opacity="0.1"/>
    <line id="Line_5" data-name="Line 5" x1="3.763" y1="1.981" transform="translate(46.258 42.423)" fill="none" stroke="#141e7a" stroke-miterlimit="10" stroke-width="1" opacity="0.1"/>
    <rect id="Rectangle_123" data-name="Rectangle 123" width="36.52" height="5.159" rx="2.58" transform="translate(121.819 182.089)" fill="#535461"/>
    <g id="Group_8" data-name="Group 8" transform="translate(134.767 124.558)" opacity="0.7">
      <rect id="Rectangle_124" data-name="Rectangle 124" width="90.765" height="62.759" rx="28.22" fill="url(#linear-gradient)"/>
    </g>
    <rect id="Rectangle_125" data-name="Rectangle 125" width="85.981" height="61.599" rx="26.84" transform="translate(136.663 125.715)" fill="#3e3f49"/>
    <rect id="Rectangle_126" data-name="Rectangle 126" width="85.981" height="61.599" rx="26.84" transform="translate(137.624 125.715)" fill="#535461"/>
    <circle id="Ellipse_27" data-name="Ellipse 27" cx="2.777" cy="2.777" r="2.777" transform="translate(182.882 161.962)" fill="#e0e0e0"/>
    <path id="Path_226" data-name="Path 226" d="M234.458,763.873s-4.939-1.673-7.315,2.678a7.937,7.937,0,0,0,.106,7.641,11.217,11.217,0,0,0,10.885,6.158c5.169-.277,6.889-4.22,7.355-7.89a8.1,8.1,0,0,0-10.764-8.677Z" transform="translate(-174.7 -580.276)" fill="#141e7a"/>
    <path id="Path_227" data-name="Path 227" d="M228.308,774.282a7.937,7.937,0,0,1-.106-7.641c2.376-4.354,7.315-2.678,7.315-2.678l.252-.09a8.033,8.033,0,0,1,5.8.131,8.036,8.036,0,0,0-6.842-.653l-.252.09s-4.939-1.673-7.315,2.678a7.937,7.937,0,0,0,.106,7.641,11.808,11.808,0,0,0,5.6,5.287A12.238,12.238,0,0,1,228.308,774.282Z" transform="translate(-174.603 -579.974)" fill="#fff" opacity="0.1"/>
    <path id="Path_228" data-name="Path 228" d="M244.52,771.85s1.832,1.44,6.276,0" transform="translate(-187.807 -586.16)" opacity="0.2"/>
    <path id="Path_229" data-name="Path 229" d="M243.26,738.21s3.138,8.5,2.877,10.723l2.488-.261s-4.186-7.464-3.138-10.462Z" transform="translate(-186.854 -562.982)" fill="#141e7a"/>
    <path id="Path_230" data-name="Path 230" d="M243.26,738.21s3.138,8.5,2.877,10.723l2.488-.261s-4.186-7.464-3.138-10.462Z" transform="translate(-186.854 -562.982)" opacity="0.2"/>
    <path id="Path_231" data-name="Path 231" d="M262.953,737.7s-4.939-2.525-7.153-.439-2.55,7.42-2.55,7.42S261.308,745.788,262.953,737.7Z" transform="translate(-194.33 -561.758)" fill="#141e7a"/>
    <path id="Path_232" data-name="Path 232" d="M262.953,737.7s-4.939-2.525-7.153-.439-2.55,7.42-2.55,7.42S261.308,745.788,262.953,737.7Z" transform="translate(-194.33 -561.758)" fill="#fff" opacity="0.1"/>
    <path id="Path_233" data-name="Path 233" d="M253.26,747.482s1.3-6.192,9.7-6.982" transform="translate(-194.337 -564.559)" fill="none" stroke="#141e7a" stroke-miterlimit="10" stroke-width="1"/>
    <g id="Group_9" data-name="Group 9" transform="translate(191.245 75.592)" opacity="0.1">
      <path id="Path_234" data-name="Path 234" d="M756.565,347.023a2.359,2.359,0,0,0-2.8,1.023,3.032,3.032,0,0,0,.04,2.917,4.269,4.269,0,0,0,4.152,2.351c1.975-.106,2.631-1.611,2.8-3.014a3.11,3.11,0,0,0-4.111-3.315Z" transform="translate(-753.412 -343.616)" fill="#141e7a"/>
      <path id="Path_235" data-name="Path 235" d="M754.244,351a3.032,3.032,0,0,1-.04-2.917,2.363,2.363,0,0,1,2.8-1.023l.1-.034a3.069,3.069,0,0,1,2.217.05,3.069,3.069,0,0,0-2.615-.249l-.1.034a2.359,2.359,0,0,0-2.8,1.023,3.032,3.032,0,0,0,.04,2.917,4.531,4.531,0,0,0,2.133,2.018A4.665,4.665,0,0,1,754.244,351Z" transform="translate(-753.439 -343.498)" fill="#141e7a" opacity="0.1"/>
      <path id="Path_236" data-name="Path 236" d="M760.42,350.06s.7.55,2.4,0" transform="translate(-758.24 -345.854)" fill="#141e7a" opacity="0.2"/>
      <path id="Path_237" data-name="Path 237" d="M759.93,337.21s1.2,3.247,1.1,4.1l.949-.1s-1.6-2.846-1.2-4Z" transform="translate(-757.903 -337.001)" fill="#141e7a"/>
      <path id="Path_238" data-name="Path 238" d="M759.93,337.21s1.2,3.247,1.1,4.1l.949-.1s-1.6-2.846-1.2-4Z" transform="translate(-757.903 -337.001)" fill="#141e7a" opacity="0.2"/>
      <path id="Path_239" data-name="Path 239" d="M767.464,337.02s-1.888-.964-2.731-.168a5.3,5.3,0,0,0-.973,2.833A3.3,3.3,0,0,0,767.464,337.02Z" transform="translate(-760.542 -336.537)" fill="#141e7a"/>
      <path id="Path_240" data-name="Path 240" d="M767.464,337.02s-1.888-.964-2.731-.168a5.3,5.3,0,0,0-.973,2.833A3.3,3.3,0,0,0,767.464,337.02Z" transform="translate(-760.542 -336.537)" fill="#141e7a" opacity="0.1"/>
      <path id="Path_241" data-name="Path 241" d="M763.75,340.748s.495-2.364,3.7-2.668" transform="translate(-760.535 -337.6)" fill="#141e7a"/>
    </g>
    <g id="Group_10" data-name="Group 10" transform="translate(225.091 101.246)" opacity="0.1">
      <path id="Path_242" data-name="Path 242" d="M884.565,446.023a2.359,2.359,0,0,0-2.8,1.023,3.032,3.032,0,0,0,.04,2.917,4.269,4.269,0,0,0,4.152,2.351c1.975-.106,2.631-1.611,2.8-3.014a3.11,3.11,0,0,0-4.111-3.315Z" transform="translate(-881.412 -442.616)" fill="#141e7a"/>
      <path id="Path_243" data-name="Path 243" d="M882.244,450a3.032,3.032,0,0,1-.04-2.917,2.363,2.363,0,0,1,2.8-1.023l.1-.034a3.069,3.069,0,0,1,2.217.05,3.069,3.069,0,0,0-2.615-.249l-.1.034a2.359,2.359,0,0,0-2.8,1.023,3.032,3.032,0,0,0,.04,2.917,4.532,4.532,0,0,0,2.133,2.018A4.665,4.665,0,0,1,882.244,450Z" transform="translate(-881.439 -442.498)" fill="#141e7a" opacity="0.1"/>
      <path id="Path_244" data-name="Path 244" d="M888.42,449.06s.7.55,2.4,0" transform="translate(-886.24 -444.854)" fill="#141e7a" opacity="0.2"/>
      <path id="Path_245" data-name="Path 245" d="M887.93,436.21s1.2,3.247,1.1,4.1l.949-.1s-1.6-2.846-1.2-4Z" transform="translate(-885.903 -436.001)" fill="#141e7a"/>
      <path id="Path_246" data-name="Path 246" d="M887.93,436.21s1.2,3.247,1.1,4.1l.949-.1s-1.6-2.846-1.2-4Z" transform="translate(-885.903 -436.001)" fill="#141e7a" opacity="0.2"/>
      <path id="Path_247" data-name="Path 247" d="M895.464,436.02s-1.888-.964-2.731-.168a5.3,5.3,0,0,0-.973,2.833A3.3,3.3,0,0,0,895.464,436.02Z" transform="translate(-888.542 -435.537)" fill="#141e7a"/>
      <path id="Path_248" data-name="Path 248" d="M895.464,436.02s-1.888-.964-2.731-.168a5.3,5.3,0,0,0-.973,2.833A3.3,3.3,0,0,0,895.464,436.02Z" transform="translate(-888.542 -435.537)" fill="#141e7a" opacity="0.1"/>
      <path id="Path_249" data-name="Path 249" d="M891.75,439.748s.495-2.364,3.7-2.668" transform="translate(-888.535 -436.6)" fill="#141e7a"/>
    </g>
  </g>
</svg>
