<svg xmlns="http://www.w3.org/2000/svg" width="100%" height="100%" viewBox="0 0 302.461 211.627">
  <g id="undraw_interview_rmcf" transform="translate(0 -0.01)">
    <path id="Path_48" data-name="Path 48" d="M186.6,78.853c-12.295-4.676-25.287-8.582-38.55-8.091-19.5.72-38.221,11.692-47.388,27.8-7.778,13.651-8.738,29.65-12.088,44.8-4.123,18.661-12.035,36.4-20.483,53.746-4.536,9.318-9.324,18.837-10.068,29.05-1.032,14.181,6.213,28.311,17.576,37.744s26.453,14.409,41.6,15.495c8.06.578,16.482.042,23.641-3.468,7.574-3.713,13.1-10.423,20.7-14.083,7.047-3.392,15.291-3.867,23.2-3.426a110.1,110.1,0,0,1,30.292,6.026c11.059,3.883,21.342,9.51,32.362,13.45s23.362,6.138,34.639,2.851c10.6-3.088,18.971-10.587,26.517-18.181a322.269,322.269,0,0,0,33.818-40c6.81-9.544,13.148-19.612,16.159-30.736,5.758-21.267-2.165-45.259-19.738-59.783-14.56-12.033-34.1-17.255-53.227-20.424-17.442-2.89-37.61-3.069-53.665-10.6C216.583,93.828,202.651,84.962,186.6,78.853Z" transform="translate(-57.92 -70.71)" fill="#141e7a" opacity="0.1"/>
    <path id="Path_49" data-name="Path 49" d="M632.58,617.075V627.21h2.882l-.558-10.88Z" transform="translate(-456.101 -444.377)" fill="#aaabb0"/>
    <path id="Path_50" data-name="Path 50" d="M477.41,609.745V619.88h2.885L479.737,609Z" transform="translate(-344.221 -439.092)" fill="#aaabb0"/>
    <rect id="Rectangle_40" data-name="Rectangle 40" width="3.719" height="18.042" rx="1.859" transform="translate(179.827 153.914)" fill="#aaabb0"/>
    <rect id="Rectangle_41" data-name="Rectangle 41" width="3.719" height="22.04" rx="1.859" transform="translate(132.121 149.913)" fill="#aaabb0"/>
    <path id="Path_51" data-name="Path 51" d="M732.84,233.563s3.719-1.582,4.277,0,.837,15.252.837,15.252h-3.535Z" transform="translate(-544.549 -187.616)" fill="#aaabb0"/>
    <path id="Path_52" data-name="Path 52" d="M573.617,233.563s-3.722-1.582-4.28,0-.837,15.252-.837,15.252h3.535Z" transform="translate(-426.057 -187.616)" fill="#aaabb0"/>
    <path id="Path_53" data-name="Path 53" d="M529.468,115.279l-.558,11.346h2.511V115Z" transform="translate(-381.353 -82.91)" fill="#aaabb0"/>
    <path id="Path_54" data-name="Path 54" d="M581.17,240.708l.745-16.368s-.279-3.627,8.554-2.511,34.689,3.348,34.689,3.348v15.531Z" transform="translate(-435.192 -179.508)" fill="#33323d"/>
    <path id="Path_55" data-name="Path 55" d="M587.185,597.125l-1.395,25.014s-20.461,11.346-45.29.558l2.232-26.316Z" transform="translate(-405.868 -449.72)" fill="#33323d"/>
    <path id="Path_56" data-name="Path 56" d="M580.25,161.876l.463,16.181h28.83l-1.674-21.387Z" transform="translate(-418.37 -112.954)" fill="#444053"/>
    <rect id="Rectangle_42" data-name="Rectangle 42" width="27.156" height="34.407" transform="translate(137.653 136.709)" fill="#4c4981"/>
    <path id="Path_57" data-name="Path 57" d="M612.813,605.067s3.906-3.069,4.556-2.14-2.321,4.93-3.532,4.464S612.813,605.067,612.813,605.067Z" transform="translate(-458 -454.314)" fill="#ffb9b9"/>
    <rect id="Rectangle_43" data-name="Rectangle 43" width="178.262" height="89.275" transform="translate(84.953 60.268)" fill="#504f60"/>
    <path id="Path_58" data-name="Path 58" d="M579.9,127.4s-1.395-13.02,0-14.6,24.829-16.555,46.5,1.021c0,0,2.045.095,1.674,4.743a55.8,55.8,0,0,0,.045,8.835S581.48,130.745,579.9,127.4Z" transform="translate(-433.828 -95.678)" fill="#33323d"/>
    <path id="Path_59" data-name="Path 59" d="M579.9,127.4s-1.395-13.02,0-14.6,24.829-16.555,46.5,1.021c0,0,2.045.095,1.674,4.743a55.8,55.8,0,0,0,.045,8.835S581.48,130.745,579.9,127.4Z" transform="translate(-433.828 -95.678)" opacity="0.1"/>
    <path id="Path_60" data-name="Path 60" d="M579.9,133.4s-1.395-13.02,0-14.6,24.829-16.555,46.5,1.021c0,0,2.045.095,1.674,4.743a55.8,55.8,0,0,0,.045,8.835S581.48,136.745,579.9,133.4Z" transform="translate(-433.828 -100.004)" fill="#33323d"/>
    <path id="Path_61" data-name="Path 61" d="M724.032,169.05s1.487,5.58,1.024,6.509a11.241,11.241,0,0,0-.379,3.535s.1,1.674-.644,1.858-1.395.279-.792.837,0,1.395,0,1.395a4.346,4.346,0,0,0,0,2.14c.326.837-1.908,1.186-1.719,2.232s.815,4,0,4.093.279,3.719-.455,3.719-1.255,6.509-1.255,6.509-5.161-4.369-8.6-3.161c0,0,.279-3.627,1.395-4.93s.778-4.648.778-4.648l5.535-16.647Z" transform="translate(-528.953 -141.607)" fill="#4c4981"/>
    <path id="Path_62" data-name="Path 62" d="M635.111,393.811c-1.208,1.336-2.511-5.8-2.511-5.8s-3.44,4.743-5.672,1.582c-1.546-2.19-.326-8.395.558-12,.4-1.6.731-2.689.731-2.689l5.022-.837s.017,1.094.128,2.422c.151,1.794.477,4.02,1.172,4.553C635.763,381.968,636.321,392.463,635.111,393.811Z" transform="translate(-467.651 -289.43)" fill="#ae6e79"/>
    <path id="Path_63" data-name="Path 63" d="M612.66,138.652s-8.743-.092-10.88,4.556-2.232,6.232-3.069,6.975,9.112,4.651,9.112,4.651l.466,15.994a5.315,5.315,0,0,1,5.114-1.082,17.207,17.207,0,0,0,7.161,0s-.187-.338,2.419,0,10.88-4.031,10.88-4.031.137-7-.047-8.487,5.9-12.437,5.9-12.437,4.743-4.556-.184-6.138c0,0-1.744-2.628-6.23-2.6S612.66,138.652,612.66,138.652Z" transform="translate(-447.803 -117.813)" opacity="0.1"/>
    <path id="Path_64" data-name="Path 64" d="M612.66,137.652s-8.743-.092-10.88,4.556-2.232,6.232-3.069,6.975,9.112,4.651,9.112,4.651l.466,15.994a5.315,5.315,0,0,1,5.114-1.082,17.207,17.207,0,0,0,7.161,0s-.187-.338,2.419,0,10.88-4.031,10.88-4.031,3.253-5.3,3.069-6.788,6.509-12.741,6.509-12.741,1.024-5.951-3.906-7.533c0,0-1.744-2.628-6.23-2.6S612.66,137.652,612.66,137.652Z" transform="translate(-447.803 -117.092)" fill="#4c4981"/>
    <path id="Path_65" data-name="Path 65" d="M636.8,376.49c-1.917-.6-4.924.72-5.881,1.116.4-1.6.731-2.689.731-2.689l5.022-.837S636.681,375.174,636.8,376.49Z" transform="translate(-471.063 -289.438)" opacity="0.1"/>
    <path id="Path_66" data-name="Path 66" d="M600.894,185.71h-2.7s-.558,5.675,0,7.348.837,1.431.65,2.67,1.3,3.136,1.3,3.136.184,4.676,1.116,6.417-1.024,9.547-1.024,9.547a11.231,11.231,0,0,0,2.324,3.627c1.582,1.579,2.419,7.438,1.953,9.67a2.68,2.68,0,0,0,1.3,3.069s.745,10.417,1.024,10.417,5.672-2.79,7.346-.374l-1.3-9.577.095-18.5s-1.769-2.327-.837-4.372-.745-6.883-.745-6.883l-2.419-10.785Z" transform="translate(-447.291 -153.62)" fill="#4c4981"/>
    <path id="Path_67" data-name="Path 67" d="M533.467,711.749s-3.906-.837-4,0-4.651,9.393,1.024,11.9,20.829,7.9,45.474.929c0,0,1.579.558,1.208-2.882s-.371-7.254-.371-7.254a19.973,19.973,0,0,0-6.511-.65C567.5,714.17,543.232,719.1,533.467,711.749Z" transform="translate(-396.604 -532.634)" fill="#33323d"/>
    <path id="Path_68" data-name="Path 68" d="M533.467,711.749s-3.906-.837-4,0-4.651,9.393,1.024,11.9,20.829,7.9,45.474.929c0,0,1.579.558,1.208-2.882s-.371-7.254-.371-7.254a19.973,19.973,0,0,0-6.511-.65C567.5,714.17,543.232,719.1,533.467,711.749Z" transform="translate(-396.604 -532.634)" opacity="0.1"/>
    <path id="Path_69" data-name="Path 69" d="M533.467,707.749s-3.906-.837-4,0-4.651,9.393,1.024,11.9,20.829,7.9,45.474.929c0,0,1.579.558,1.208-2.882s-.371-7.254-.371-7.254a19.971,19.971,0,0,0-6.511-.65C567.5,710.17,543.232,715.1,533.467,707.749Z" transform="translate(-396.604 -529.75)" fill="#33323d"/>
    <path id="Path_70" data-name="Path 70" d="M627.876,196.248a36.741,36.741,0,0,0-.868,4.056,3.477,3.477,0,0,0,1.724,3.493,5.811,5.811,0,0,1,1.029.418,2.264,2.264,0,0,1,.8,1.543,8.423,8.423,0,0,1,.1,2.293,3.882,3.882,0,0,0,.145,2.271c.667,1.191,2.4,1.016,3.727.681l-.455,3.524a.67.67,0,0,0,.815.929,7.109,7.109,0,0,0,3.317-.837,2.986,2.986,0,0,0,1.532-2.868c-.218-1.317-1.579-2.363-1.395-3.685.142-1.024,1.144-1.674,1.8-2.461a4.732,4.732,0,0,0,.321-5.256,5.98,5.98,0,0,0-4.6-2.823,12.309,12.309,0,0,1-3.069-.335,2.327,2.327,0,0,1-1.423-1.5" transform="translate(-468.236 -160.815)" fill="#444053"/>
    <path id="Path_71" data-name="Path 71" d="M513.84,616.683l.974-2.12s5.256-4.9,6.464-5.239,6.138-1.839,6.883-1.839,14.323-.745,14.323-.745l1.579,3.722-17.04,3.741-5.744,4.185Z" transform="translate(-386.646 -457.189)" fill="#767d9f"/>
    <path id="Path_72" data-name="Path 72" d="M634.2,418.452l-.89,6.849-.343,2.636-4,.558s-.432-.926-1.043-2.349c-1.855-4.319-5.348-13.224-3.323-14.761,2.692-2.048,3.348,4.743,3.348,4.743l3.069-1.49Z" transform="translate(-466.07 -316.058)" fill="#ffb9b9"/>
    <rect id="Rectangle_44" data-name="Rectangle 44" width="20.19" height="30.501" transform="translate(147.278 115.135)" fill="#fff"/>
    <rect id="Rectangle_45" data-name="Rectangle 45" width="20.19" height="30.501" transform="translate(147.278 115.135)" opacity="0.1"/>
    <rect id="Rectangle_46" data-name="Rectangle 46" width="20.19" height="30.501" transform="translate(156.57 113.835) rotate(8.41)" fill="#fff"/>
    <rect id="Rectangle_47" data-name="Rectangle 47" width="10.392" height="15.698" transform="translate(158.45 116.713) rotate(8.41)" fill="#141e7a"/>
    <rect id="Rectangle_48" data-name="Rectangle 48" width="12.59" height="3.409" transform="translate(155.051 136.662) rotate(8.41)" fill="#141e7a"/>
    <circle id="Ellipse_16" data-name="Ellipse 16" cx="11.67" cy="11.67" r="11.67" transform="translate(161.09 14.841)" opacity="0.1"/>
    <circle id="Ellipse_17" data-name="Ellipse 17" cx="11.67" cy="11.67" r="11.67" transform="translate(161.09 14.562)" fill="#ae6e79"/>
    <path id="Path_73" data-name="Path 73" d="M625.53,121.3a1.328,1.328,0,0,1,.081-.9c.444-.923,1.707-1,2.731-.957,2.408.112,5.05.126,6.933-1.395.781-.625,1.654-2.2,2.79-1.9,1.01.265,1.431,1.635,2.483,1.939a5.1,5.1,0,0,0,2.327-.279,16.8,16.8,0,0,1,3.392-.028,4.174,4.174,0,0,0,3.136-1.035c1.043-1.116.873-2.86.781-4.388a23.63,23.63,0,0,1,.4-5.9c.379-1.931.963-4.09-.1-5.744-1.015-1.576-3.119-2.009-4.556-3.217-1.345-1.116-2.056-2.9-3.476-3.939-1.788-1.3-4.218-1.116-6.417-.89l-4.771.508a7.128,7.128,0,0,0-3.524,1.013c-1.827,1.322-2.078,4.07-3.808,5.518a15.5,15.5,0,0,1-2.634,1.44,3.163,3.163,0,0,0-1.827,2.232,6.865,6.865,0,0,0,.589,2.416c.522,1.925-.293,3.906-.815,5.845s-.622,4.294.893,5.58c.307.262.664.463.962.737a4.233,4.233,0,0,1,.926,3.872" transform="translate(-462.392 -86.422)" fill="#444053"/>
    <ellipse id="Ellipse_18" data-name="Ellipse 18" cx="0.279" cy="0.697" rx="0.279" ry="0.697" transform="translate(173.433 39.414)" fill="#444053"/>
    <ellipse id="Ellipse_19" data-name="Ellipse 19" cx="0.279" cy="0.697" rx="0.279" ry="0.697" transform="translate(173.433 42.321)" fill="#444053"/>
    <path id="Path_74" data-name="Path 74" d="M651.385,427.874a5.111,5.111,0,0,0,.611-2.388l-3.325-4.146S650.079,429.378,651.385,427.874Z" transform="translate(-483.861 -323.513)" fill="#ae6e79"/>
    <path id="Path_75" data-name="Path 75" d="M552.839,642.188s-5.457,8.436-22.506,7.533c-16.061-.837-23.9-8.741-23.527-11.53s-1.024-9.58,2.416-11.533c1.995-1.13,4.62-.46,6.472.3a3.654,3.654,0,0,0,3.842-.689c1.693-1.526,4.852-3.245,9.837-1.891a3.543,3.543,0,0,0,1.953-.036c2.076-.633,7.016-1.733,10.6.709a3.627,3.627,0,0,0,3.883.148l.05-.031c1.674-1.024,9.485,8.648,9.485,8.648S555.721,641.259,552.839,642.188Z" transform="translate(-381.566 -469.303)" opacity="0.1"/>
    <path id="Path_76" data-name="Path 76" d="M552.839,643.188s-5.457,8.437-22.506,7.533c-16.061-.837-23.9-8.741-23.527-11.53s-1.024-9.58,2.416-11.533c1.995-1.13,4.62-.46,6.472.3a3.655,3.655,0,0,0,3.842-.689c1.693-1.526,4.852-3.245,9.837-1.891a3.543,3.543,0,0,0,1.953-.036c2.076-.633,7.016-1.732,10.6.709a3.627,3.627,0,0,0,3.883.148l.05-.031c1.674-1.024,9.485,8.648,9.485,8.648S555.721,642.259,552.839,643.188Z" transform="translate(-381.566 -470.024)" fill="#767d9f"/>
    <circle id="Ellipse_20" data-name="Ellipse 20" cx="11.115" cy="11.115" r="11.115" transform="translate(137.653 154.238)" opacity="0.1"/>
    <circle id="Ellipse_21" data-name="Ellipse 21" cx="11.115" cy="11.115" r="11.115" transform="translate(137.653 154.517)" fill="#ffb9b9"/>
    <path id="Path_77" data-name="Path 77" d="M556.058,629.259a4.632,4.632,0,0,0-2.885,1.908,7.7,7.7,0,0,1-.96,1.811c-.7.706-1.889.72-2.84,1.116s-1.579,1.791-.647,2.232a2.078,2.078,0,0,0-1.811,1.836,5.46,5.46,0,0,0,.544,2.625c1.066,2.745,2.212,5.61,4.561,7.563,3.828,3.186,9.6,3.038,14.739,2.7a2.411,2.411,0,0,0,1.208-.279,2.24,2.24,0,0,0,.72-1.693c.388-2.645,1.822-5.047,2.759-7.572s1.322-5.49-.257-7.725C568.866,630.467,559.97,628.2,556.058,629.259Z" transform="translate(-410.476 -473.236)" fill="#b96b6b"/>
    <path id="Path_78" data-name="Path 78" d="M643.484,461.863l-.343,2.636-4,.558s-.432-.926-1.043-2.349l5.32-1Z" transform="translate(-476.24 -352.62)" opacity="0.1"/>
    <path id="Path_79" data-name="Path 79" d="M645.872,520.833l2.327-2.7-.466-14.878A24.151,24.151,0,0,0,648.2,500c.092-1.582-1.163-5.114-1.163-5.114a11.074,11.074,0,0,1,.79-2.048c.558-1.116-.787-3.627-.787-3.627s-2-6.509-1.166-9.764a7.308,7.308,0,0,0-.2-5.114,28.37,28.37,0,0,1-.725-5.114c.092-1.487-1.861-2.885-1.861-2.885L641.6,462.71l-5.951,1.116V476.38s.371,12,0,14.323a8.507,8.507,0,0,0,.742,4.556s-.65,3.44-.092,4.743,1.674,4.464,1.674,4.464a7.254,7.254,0,0,0,.187,3.392,3.182,3.182,0,0,1,0,2.558Z" transform="translate(-474.414 -353.341)" fill="#767d9f"/>
    <g id="Group_3" data-name="Group 3" transform="translate(156.513 16.155)" opacity="0.1">
      <path id="Path_80" data-name="Path 80" d="M731.408,131.558a23.62,23.62,0,0,0-.421,4.958,23.732,23.732,0,0,1,.432-4.118,15.925,15.925,0,0,0,.491-3.808A23.155,23.155,0,0,1,731.408,131.558Z" transform="translate(-699.722 -128.59)"/>
      <path id="Path_81" data-name="Path 81" d="M621.134,171.389c-.3-.279-.656-.474-.963-.739a3.83,3.83,0,0,1-1.225-2.79,4.267,4.267,0,0,0,1.225,3.627c.307.265.664.466.963.739a3.409,3.409,0,0,1,1.01,2.33A3.831,3.831,0,0,0,621.134,171.389Z" transform="translate(-618.934 -156.904)"/>
      <path id="Path_82" data-name="Path 82" d="M621.695,134.035a5.258,5.258,0,0,0-.151-1.755c-.162-.6-.452-1.18-.558-1.78a1.855,1.855,0,0,1-.031.2,6.986,6.986,0,0,0,.589,2.416A4.74,4.74,0,0,1,621.695,134.035Z" transform="translate(-620.384 -129.967)"/>
      <path id="Path_83" data-name="Path 83" d="M657.548,169.755a4.141,4.141,0,0,1-3.136,1.035,16.6,16.6,0,0,0-3.392.031,4.914,4.914,0,0,1-2.327.279c-1.052-.3-1.473-1.674-2.48-1.939-1.147-.3-2.02,1.269-2.79,1.894-1.883,1.507-4.525,1.493-6.933,1.395-1.024-.047-2.288.033-2.729.96a1.3,1.3,0,0,0-.081.9l-3.409.536a6.631,6.631,0,0,1-.092.837l3.5-.558a1.3,1.3,0,0,1,.081-.9c.441-.926,1.7-1.007,2.729-.96,2.408.112,5.05.126,6.933-1.395.781-.625,1.654-2.2,2.79-1.894,1.007.262,1.428,1.635,2.48,1.939a5.134,5.134,0,0,0,2.327-.279,16.6,16.6,0,0,1,3.392-.031,4.174,4.174,0,0,0,3.136-1.035,4.438,4.438,0,0,0,.837-3.27A3.64,3.64,0,0,1,657.548,169.755Z" transform="translate(-627.042 -156.501)"/>
    </g>
    <g id="Group_4" data-name="Group 4" transform="translate(158.817 40.262)" opacity="0.1">
      <path id="Path_84" data-name="Path 84" d="M629.567,219.487a5.641,5.641,0,0,0-1.029-.418,2.665,2.665,0,0,1-1.347-1.378,2.985,2.985,0,0,0,1.627,2.215,5.642,5.642,0,0,1,1.029.418,1.546,1.546,0,0,1,.494.577A2.153,2.153,0,0,0,629.567,219.487Z" transform="translate(-627.19 -216.94)"/>
      <path id="Path_85" data-name="Path 85" d="M643.3,246.924c-1.286.326-2.966.5-3.671-.594a1.916,1.916,0,0,0,.223.75c.6,1.074,2.076,1.038,3.328.773Z" transform="translate(-636.159 -237.589)"/>
      <path id="Path_86" data-name="Path 86" d="M657.385,251.2a2.993,2.993,0,0,1-1.534,2.857,7.29,7.29,0,0,1-3.317.837,1.139,1.139,0,0,1-.541-.061.664.664,0,0,0,.82.9,7.109,7.109,0,0,0,3.317-.837,2.981,2.981,0,0,0,1.532-2.868,3.164,3.164,0,0,0-.276-.826Z" transform="translate(-645.031 -241.101)"/>
      <path id="Path_87" data-name="Path 87" d="M669.059,215a4.592,4.592,0,0,1-.837,3.948c-.658.8-1.66,1.437-1.8,2.461a2.325,2.325,0,0,0,.279,1.359,1.811,1.811,0,0,1,0-.522c.142-1.024,1.144-1.674,1.8-2.461A4.693,4.693,0,0,0,669.059,215Z" transform="translate(-655.467 -215)"/>
    </g>
    <g id="Group_5" data-name="Group 5" transform="translate(136.414 155.637)" opacity="0.1">
      <path id="Path_88" data-name="Path 88" d="M552.955,634.206c.948-.393,2.134-.407,2.84-1.116a7.735,7.735,0,0,0,.96-1.808,4.585,4.585,0,0,1,2.882-1.908c3.906-1.06,12.811,1.205,15.132,4.489a6.1,6.1,0,0,1,1.066,3.37,6.3,6.3,0,0,0-1.063-3.925c-2.321-3.284-11.218-5.549-15.132-4.489a4.608,4.608,0,0,0-2.882,1.908,7.734,7.734,0,0,1-.96,1.808c-.706.706-1.892.72-2.84,1.116a1.685,1.685,0,0,0-1.063,1.772A1.919,1.919,0,0,1,552.955,634.206Z" transform="translate(-550.469 -628.555)"/>
      <path id="Path_89" data-name="Path 89" d="M546.92,657.363a2.07,2.07,0,0,1,1.811-1.836.742.742,0,0,1-.427-.477,2.168,2.168,0,0,0-1.395,1.755,2.95,2.95,0,0,0,0,.684A.478.478,0,0,0,546.92,657.363Z" transform="translate(-546.889 -647.658)"/>
    </g>
    <rect id="Rectangle_49" data-name="Rectangle 49" width="25.387" height="33.107" transform="translate(170.155 64.24)" fill="#fff"/>
    <rect id="Rectangle_50" data-name="Rectangle 50" width="25.387" height="33.107" transform="translate(170.155 64.24)" opacity="0.1"/>
    <rect id="Rectangle_51" data-name="Rectangle 51" width="25.387" height="33.107" transform="translate(180.222 70.487) rotate(-9.76)" fill="#fff"/>
    <rect id="Rectangle_52" data-name="Rectangle 52" width="5.965" height="7.778" transform="translate(186.286 92.729) rotate(-9.76)" fill="#141e7a"/>
    <rect id="Rectangle_53" data-name="Rectangle 53" width="5.965" height="7.778" transform="translate(194.421 91.329) rotate(-9.76)" fill="#141e7a"/>
    <rect id="Rectangle_54" data-name="Rectangle 54" width="20.917" height="7.813" transform="translate(185.432 82.626) rotate(-9.744)" fill="#141e7a"/>
    <rect id="Rectangle_55" data-name="Rectangle 55" width="20.917" height="1.743" transform="translate(183.713 73.436) rotate(-9.744)" fill="#141e7a"/>
    <rect id="Rectangle_56" data-name="Rectangle 56" width="20.917" height="1.743" transform="translate(184.389 76.596) rotate(-9.744)" fill="#141e7a"/>
    <path id="Path_90" data-name="Path 90" d="M699.729,268.71s-11.67,11.717-5.811,14.694,9.672-9.9,9.672-9.9l.926-2.929Z" transform="translate(-515.299 -213.464)" fill="#ae6e79"/>
    <path id="Path_91" data-name="Path 91" d="M711.612,260.645l-1.442,3.186s7.114,1,8.6,3.15l-.882-5.622-1.046-2.4Z" transform="translate(-528.203 -206.434)" opacity="0.1"/>
    <path id="Path_92" data-name="Path 92" d="M712.612,259.645l-1.442,3.186s7.114,1,8.6,3.15l-.882-5.622-1.046-2.4Z" transform="translate(-528.924 -205.713)" fill="#4c4981"/>
    <path id="Path_93" data-name="Path 93" d="M812.383,403.26l-.153.106.212.095.229-.02.028-.159Z" transform="translate(-585.631 -290.75)" fill="#464a5f"/>
    <path id="Path_94" data-name="Path 94" d="M812.383,403.26l-.153.106.212.095.229-.02.028-.159Z" transform="translate(-585.631 -290.75)" opacity="0.1"/>
    <path id="Path_95" data-name="Path 95" d="M812.059,402.755l-.156.1-.123-.151.075-.123.07-.022Z" transform="translate(-585.307 -290.245)" fill="#9c9ca1"/>
    <path id="Path_96" data-name="Path 96" d="M812.059,402.755l-.156.1-.123-.151.075-.123.07-.022Z" transform="translate(-585.307 -290.245)" opacity="0.1"/>
    <path id="Path_97" data-name="Path 97" d="M867.392,360.7l-11.422-16.5a1.359,1.359,0,0,0-1.892-.349l-25.46,17.475a1.364,1.364,0,0,0-.354,1.894l11.391,16.706Z" transform="translate(-613.18 -267.474)" fill="#9c9ca1"/>
    <path id="Path_98" data-name="Path 98" d="M867.392,360.7l-11.422-16.5a1.359,1.359,0,0,0-1.892-.349l-25.46,17.475a1.364,1.364,0,0,0-.354,1.894l11.391,16.706Z" transform="translate(-613.18 -267.474)" opacity="0.1"/>
    <path id="Path_99" data-name="Path 99" d="M868.39,360.843l-11.422-16.5a1.361,1.361,0,0,0-1.894-.349l-25.457,17.487a1.367,1.367,0,0,0-.357,1.894l11.391,16.714Z" transform="translate(-613.899 -267.574)" fill="#9c9ca1"/>
    <path id="Path_100" data-name="Path 100" d="M908.137,408.816l-9.485-3.047L870.91,425l9.636,3.153a1.459,1.459,0,0,0,1.292-.2l26.378-18.625a.279.279,0,0,0-.078-.516Z" transform="translate(-644.099 -312.287)" fill="#464a5f"/>
    <path id="Path_101" data-name="Path 101" d="M908.137,408.816l-9.485-3.047L870.91,425l9.636,3.153a1.459,1.459,0,0,0,1.292-.2l26.378-18.625a.279.279,0,0,0-.078-.516Z" transform="translate(-644.099 -312.287)" opacity="0.1"/>
    <path id="Path_102" data-name="Path 102" d="M907.927,408.119l-9.485-3.049L870.7,424.3l9.636,3.147a1.448,1.448,0,0,0,1.292-.192l26.378-18.625a.279.279,0,0,0-.078-.511Z" transform="translate(-643.948 -311.782)" fill="#464a5f"/>
    <g id="Group_6" data-name="Group 6" transform="translate(222.516 85.622)" opacity="0.1">
      <path id="Path_103" data-name="Path 103" d="M948.285,399.465l-.7-1a.279.279,0,0,0-.379-.07l-1.041.695a.279.279,0,0,0-.075.377l.644.99a.279.279,0,0,0,.377.081l1.1-.689A.279.279,0,0,0,948.285,399.465Z" transform="translate(-920.79 -392.555)"/>
      <path id="Path_104" data-name="Path 104" d="M941.58,404.113l-.7-1a.279.279,0,0,0-.379-.07l-1.038.7a.279.279,0,0,0-.078.377l.644.99a.279.279,0,0,0,.377.084l1.1-.689a.279.279,0,0,0,.078-.391Z" transform="translate(-915.954 -395.908)"/>
      <path id="Path_105" data-name="Path 105" d="M934.534,408.983l-.7-1a.279.279,0,0,0-.379-.07l-1.041.7a.279.279,0,0,0-.075.379l.644.99a.279.279,0,0,0,.377.081l1.1-.689a.279.279,0,0,0,.081-.391Z" transform="translate(-910.873 -399.419)"/>
      <path id="Path_106" data-name="Path 106" d="M927.415,413.919l-.7-1a.279.279,0,0,0-.377-.07l-1.041.7a.279.279,0,0,0-.075.377l.645.99a.279.279,0,0,0,.374.084l1.1-.692a.279.279,0,0,0,.078-.388Z" transform="translate(-905.742 -402.977)"/>
      <path id="Path_107" data-name="Path 107" d="M920.29,418.853l-.7-1a.279.279,0,0,0-.379-.07l-1.038.7a.279.279,0,0,0-.078.377l.644.99a.279.279,0,0,0,.377.084l1.1-.692a.279.279,0,0,0,.078-.388Z" transform="translate(-900.604 -406.536)"/>
      <path id="Path_108" data-name="Path 108" d="M913.108,423.76l-.873-1.244a.125.125,0,0,0-.176-.033l-1.278.862a.126.126,0,0,0-.036.176l.8,1.23a.128.128,0,0,0,.176.039l1.35-.837a.128.128,0,0,0,.036-.193Z" transform="translate(-895.321 -409.942)"/>
      <path id="Path_109" data-name="Path 109" d="M905.974,428.69l-.879-1.244a.128.128,0,0,0-.179-.033l-1.278.862a.128.128,0,0,0-.033.176l.8,1.23a.123.123,0,0,0,.176.039l1.348-.837a.126.126,0,0,0,.045-.193Z" transform="translate(-890.174 -413.496)"/>
      <path id="Path_110" data-name="Path 110" d="M899.68,433.1l-.873-1.233a.128.128,0,0,0-.176-.031l-1.278.859a.131.131,0,0,0-.036.179l.8,1.23a.131.131,0,0,0,.176.039l1.35-.837a.128.128,0,0,0,.036-.206Z" transform="translate(-885.64 -416.684)"/>
      <path id="Path_111" data-name="Path 111" d="M892.617,437.948l-.873-1.244a.128.128,0,0,0-.176-.031l-1.278.859a.128.128,0,0,0-.036.179l.8,1.23a.131.131,0,0,0,.176.039l1.35-.837a.131.131,0,0,0,.036-.2Z" transform="translate(-880.547 -420.174)"/>
      <path id="Path_112" data-name="Path 112" d="M885.778,442.64,884.9,441.4a.126.126,0,0,0-.176-.033l-1.278.862a.126.126,0,0,0-.036.176l.8,1.23a.128.128,0,0,0,.176.039l1.35-.837a.128.128,0,0,0,.036-.192Z" transform="translate(-875.616 -423.555)"/>
      <path id="Path_113" data-name="Path 113" d="M878.959,447.421l-.865-1.247a.128.128,0,0,0-.176-.031L876.64,447a.128.128,0,0,0-.036.179l.8,1.23a.131.131,0,0,0,.176.039l1.35-.837a.128.128,0,0,0,.028-.193Z" transform="translate(-870.705 -427.002)"/>
      <path id="Path_114" data-name="Path 114" d="M872.1,452.15l-.873-1.244a.126.126,0,0,0-.176-.033l-1.278.856a.126.126,0,0,0-.036.176l.8,1.23a.128.128,0,0,0,.176.039l1.35-.837a.128.128,0,0,0,.036-.187Z" transform="translate(-865.752 -430.412)"/>
      <path id="Path_115" data-name="Path 115" d="M943.8,392.955l-.7-1a.279.279,0,0,0-.379-.07l-1.029.7a.279.279,0,0,0-.078.377l.644.99a.279.279,0,0,0,.377.081l1.1-.689A.279.279,0,0,0,943.8,392.955Z" transform="translate(-917.562 -387.861)"/>
      <path id="Path_116" data-name="Path 116" d="M933.93,378.714l-.7-1.01a.279.279,0,0,0-.377-.07l-1.041.7a.279.279,0,0,0-.078.377l.644.99a.279.279,0,0,0,.377.084l1.1-.689A.279.279,0,0,0,933.93,378.714Z" transform="translate(-910.438 -377.59)"/>
      <path id="Path_117" data-name="Path 117" d="M937.075,397.606l-.7-1a.279.279,0,0,0-.377-.07l-1.041.7a.279.279,0,0,0-.075.377l.642.99a.279.279,0,0,0,.377.084L937,398a.279.279,0,0,0,.078-.391Z" transform="translate(-912.707 -391.217)"/>
      <path id="Path_118" data-name="Path 118" d="M930.026,402.473l-.7-1a.279.279,0,0,0-.379-.07l-1.038.692a.279.279,0,0,0-.078.379l.644.99a.279.279,0,0,0,.377.081l1.1-.689A.279.279,0,0,0,930.026,402.473Z" transform="translate(-907.623 -394.725)"/>
      <path id="Path_119" data-name="Path 119" d="M922.9,407.405l-.7-1a.279.279,0,0,0-.379-.07l-1.041.711a.279.279,0,0,0-.075.377l.644.99a.279.279,0,0,0,.377.081l1.1-.689a.279.279,0,0,0,.078-.4Z" transform="translate(-902.49 -398.28)"/>
      <path id="Path_120" data-name="Path 120" d="M927.38,383.606l-.7-1a.279.279,0,0,0-.377-.07l-1.041.7a.279.279,0,0,0-.078.377l.644.99a.279.279,0,0,0,.377.084l1.1-.689a.279.279,0,0,0,.078-.391Z" transform="translate(-905.716 -381.123)"/>
      <path id="Path_121" data-name="Path 121" d="M920.34,388.475l-.7-1a.279.279,0,0,0-.379-.07l-1.038.692a.279.279,0,0,0-.078.377l.644.99a.279.279,0,0,0,.377.081l1.1-.689A.279.279,0,0,0,920.34,388.475Z" transform="translate(-900.64 -384.631)"/>
      <path id="Path_122" data-name="Path 122" d="M913.215,393.411l-.7-1a.279.279,0,0,0-.377-.073l-1.041.711a.279.279,0,0,0-.075.377l.644.99a.279.279,0,0,0,.377.084l1.1-.692a.279.279,0,0,0,.078-.4Z" transform="translate(-895.504 -388.191)"/>
      <path id="Path_123" data-name="Path 123" d="M915.806,412.341l-.7-1a.279.279,0,0,0-.377-.073l-1.032.7a.279.279,0,0,0-.075.377l.633.99a.279.279,0,0,0,.374.084l1.1-.692a.279.279,0,0,0,.081-.388Z" transform="translate(-897.378 -401.84)"/>
      <path id="Path_124" data-name="Path 124" d="M908.66,417.273l-.7-1a.279.279,0,0,0-.379-.07l-1.038.7a.279.279,0,0,0-.078.377l.644.99a.279.279,0,0,0,.377.084l1.1-.689a.279.279,0,0,0,.078-.391Z" transform="translate(-892.218 -405.396)"/>
      <path id="Path_125" data-name="Path 125" d="M901.478,422.18l-.873-1.244a.126.126,0,0,0-.176-.033l-1.278.862a.125.125,0,0,0-.036.176l.8,1.23a.126.126,0,0,0,.176.039l1.35-.837a.128.128,0,0,0,.036-.193Z" transform="translate(-886.936 -408.803)"/>
      <path id="Path_126" data-name="Path 126" d="M895.177,426.551,894.3,425.3a.128.128,0,0,0-.176-.031l-1.275.859a.131.131,0,0,0-.036.179l.8,1.23a.131.131,0,0,0,.176.039l1.35-.837a.123.123,0,0,0,.033-.193Z" transform="translate(-882.396 -411.954)"/>
      <path id="Path_127" data-name="Path 127" d="M888.108,431.438l-.873-1.244a.128.128,0,0,0-.176-.031l-1.278.859a.126.126,0,0,0-.036.176l.8,1.233a.131.131,0,0,0,.176.039l1.35-.837a.131.131,0,0,0,.036-.2Z" transform="translate(-877.296 -415.48)"/>
      <path id="Path_128" data-name="Path 128" d="M881.268,436.17l-.873-1.244a.126.126,0,0,0-.176-.033l-1.278.851a.126.126,0,0,0-.036.176l.8,1.23a.128.128,0,0,0,.176.039l1.35-.837a.128.128,0,0,0,.036-.181Z" transform="translate(-872.364 -418.89)"/>
      <path id="Path_129" data-name="Path 129" d="M925.345,395.706l-.7-1a.279.279,0,0,0-.377-.07l-1.041.7a.279.279,0,0,0-.075.377l.644.99a.279.279,0,0,0,.374.081l1.1-.689a.279.279,0,0,0,.078-.391Z" transform="translate(-904.25 -389.847)"/>
      <path id="Path_130" data-name="Path 130" d="M918.21,400.635l-.7-1a.279.279,0,0,0-.379-.07l-1.038.7a.279.279,0,0,0-.078.377l.644.99a.279.279,0,0,0,.377.084l1.1-.692a.279.279,0,0,0,.078-.388Z" transform="translate(-899.104 -393.399)"/>
      <path id="Path_131" data-name="Path 131" d="M911.1,405.573l-.7-1a.279.279,0,0,0-.379-.07l-1.041.7a.279.279,0,0,0-.075.377l.644.99a.279.279,0,0,0,.377.084l1.1-.692a.279.279,0,0,0,.081-.388Z" transform="translate(-893.975 -396.96)"/>
      <path id="Path_132" data-name="Path 132" d="M903.975,410.506l-.7-1a.279.279,0,0,0-.377-.07l-1.041.7a.279.279,0,0,0-.075.377l.644,1a.279.279,0,0,0,.374.084l1.1-.689a.279.279,0,0,0,.078-.4Z" transform="translate(-888.842 -400.518)"/>
      <path id="Path_133" data-name="Path 133" d="M896.84,415.41l-.873-1.244a.126.126,0,0,0-.176-.033l-1.278.862a.128.128,0,0,0-.036.176l.8,1.233a.126.126,0,0,0,.176.036l1.35-.837a.128.128,0,0,0,.036-.193Z" transform="translate(-883.593 -403.922)"/>
      <path id="Path_134" data-name="Path 134" d="M890.49,419.78l-.873-1.247a.131.131,0,0,0-.178-.031l-1.275.859a.131.131,0,0,0-.036.179l.8,1.23a.128.128,0,0,0,.176.039l1.35-.837a.128.128,0,0,0,.036-.193Z" transform="translate(-879.014 -407.072)"/>
      <path id="Path_135" data-name="Path 135" d="M883.425,424.64l-.873-1.247a.131.131,0,0,0-.179-.031l-1.278.859a.134.134,0,0,0-.036.179l.8,1.23a.128.128,0,0,0,.176.039l1.347-.837a.126.126,0,0,0,.039-.193Z" transform="translate(-873.919 -410.576)"/>
      <path id="Path_136" data-name="Path 136" d="M876.588,429.4l-.873-1.244a.128.128,0,0,0-.178-.033l-1.278.862a.128.128,0,0,0-.034.176l.8,1.23a.123.123,0,0,0,.176.039l1.348-.837a.126.126,0,0,0,.039-.193Z" transform="translate(-868.99 -414.008)"/>
      <path id="Path_137" data-name="Path 137" d="M874.428,440.908l-.873-1.244a.128.128,0,0,0-.176-.031l-1.278.859a.125.125,0,0,0-.036.176l.8,1.233a.131.131,0,0,0,.176.039l1.35-.837a.131.131,0,0,0,.036-.2Z" transform="translate(-867.432 -422.308)"/>
      <path id="Path_138" data-name="Path 138" d="M867.588,445.64l-.873-1.244a.126.126,0,0,0-.176-.033l-1.278.862a.126.126,0,0,0-.036.176l.8,1.23a.128.128,0,0,0,.176.039l1.35-.837a.128.128,0,0,0,.036-.193Z" transform="translate(-862.501 -425.718)"/>
      <path id="Path_139" data-name="Path 139" d="M878.4,417.447l-.837-1.172a.173.173,0,0,0-.237-.042l-1.205.812a.17.17,0,0,0-.047.237l.753,1.158a.167.167,0,0,0,.234.053l1.275-.8a.173.173,0,0,0,.064-.245Z" transform="translate(-870.318 -405.431)"/>
      <path id="Path_140" data-name="Path 140" d="M871.6,422.179l-.823-1.172a.17.17,0,0,0-.237-.045l-1.205.826a.167.167,0,0,0-.047.234l.753,1.161a.173.173,0,0,0,.234.053l1.275-.8a.173.173,0,0,0,.05-.257Z" transform="translate(-865.423 -408.841)"/>
      <path id="Path_141" data-name="Path 141" d="M864.758,426.919l-.823-1.175a.173.173,0,0,0-.237-.042l-1.205.812a.17.17,0,0,0-.047.237l.753,1.158a.167.167,0,0,0,.234.053l1.275-.8a.17.17,0,0,0,.05-.243Z" transform="translate(-860.491 -412.259)"/>
      <path id="Path_142" data-name="Path 142" d="M857.9,431.641l-.873-1.247a.128.128,0,0,0-.176-.031l-1.278.859a.131.131,0,0,0-.036.179l.8,1.23a.131.131,0,0,0,.176.039l1.35-.837a.123.123,0,0,0,.036-.193Z" transform="translate(-855.516 -415.624)"/>
      <path id="Path_143" data-name="Path 143" d="M934.14,385.78l-.756-1.074a.279.279,0,0,0-.379-.067l-2.952,2.067a.279.279,0,0,0-.073.374l.711,1.1a.279.279,0,0,0,.388.075l3-2.1A.279.279,0,0,0,934.14,385.78Z" transform="translate(-909.175 -382.639)"/>
      <path id="Path_144" data-name="Path 144" d="M864.66,433.826l-.926-1.308a.126.126,0,0,0-.179-.031l-3.186,2.232a.126.126,0,0,0-.034.173l.87,1.347a.128.128,0,0,0,.181.036l3.239-2.268A.131.131,0,0,0,864.66,433.826Z" transform="translate(-858.976 -417.154)"/>
      <path id="Path_145" data-name="Path 145" d="M891.128,398.108l-.854-1.25a.128.128,0,0,0-.176-.033l-7.075,4.776a.128.128,0,0,0-.036.176l.873,1.339a.128.128,0,0,0,.181.036l7.053-4.865a.128.128,0,0,0,.033-.179Z" transform="translate(-875.309 -391.444)"/>
    </g>
    <path id="Path_146" data-name="Path 146" d="M948.95,399.585l-.7-1a.279.279,0,0,0-.379-.07l-1.038.7a.279.279,0,0,0-.078.377l.644.99a.279.279,0,0,0,.377.084l1.1-.692a.279.279,0,0,0,.078-.388Z" transform="translate(-698.752 -307.02)" fill="#464a5f"/>
    <path id="Path_147" data-name="Path 147" d="M942.21,404.236l-.7-1a.279.279,0,0,0-.377-.07l-1.041.7a.279.279,0,0,0-.078.377l.644.99a.279.279,0,0,0,.377.084l1.1-.689a.279.279,0,0,0,.078-.391Z" transform="translate(-693.892 -310.376)" fill="#464a5f"/>
    <path id="Path_148" data-name="Path 148" d="M935.21,409.113l-.7-1a.279.279,0,0,0-.379-.07l-1.038.7a.279.279,0,0,0-.078.377l.645.99a.279.279,0,0,0,.377.081l1.1-.689a.279.279,0,0,0,.078-.391Z" transform="translate(-688.845 -313.891)" fill="#464a5f"/>
    <path id="Path_149" data-name="Path 149" d="M928.063,414.039l-.7-1a.279.279,0,0,0-.377-.07l-1.041.7a.279.279,0,0,0-.073.391l.644.99a.279.279,0,0,0,.377.084l1.1-.692a.279.279,0,0,0,.075-.4Z" transform="translate(-683.691 -317.442)" fill="#464a5f"/>
    <path id="Path_150" data-name="Path 150" d="M920.955,418.976l-.7-1a.279.279,0,0,0-.377-.07l-1.041.7a.279.279,0,0,0-.075.377l.642.99a.279.279,0,0,0,.377.084l1.1-.692a.279.279,0,0,0,.078-.388Z" transform="translate(-678.568 -321.004)" fill="#464a5f"/>
    <path id="Path_151" data-name="Path 151" d="M913.768,423.88l-.873-1.244a.125.125,0,0,0-.176-.034l-1.278.862a.126.126,0,0,0-.036.176l.8,1.23a.128.128,0,0,0,.176.039l1.35-.837a.128.128,0,0,0,.036-.193Z" transform="translate(-673.281 -324.407)" fill="#464a5f"/>
    <path id="Path_152" data-name="Path 152" d="M906.648,428.81l-.873-1.244a.128.128,0,0,0-.179-.033l-1.275.862a.126.126,0,0,0-.036.176l.8,1.233a.126.126,0,0,0,.176.036l1.35-.837a.131.131,0,0,0,.036-.192Z" transform="translate(-668.148 -327.961)" fill="#464a5f"/>
    <path id="Path_153" data-name="Path 153" d="M900.34,433.181l-.873-1.247a.128.128,0,0,0-.176-.031l-1.278.848a.131.131,0,0,0-.036.179l.8,1.23a.131.131,0,0,0,.176.039l1.35-.837a.128.128,0,0,0,.036-.181Z" transform="translate(-663.6 -331.113)" fill="#464a5f"/>
    <path id="Path_154" data-name="Path 154" d="M893.277,438.1l-.873-1.236a.128.128,0,0,0-.176-.031l-1.278.859a.128.128,0,0,0-.036.179l.8,1.23a.131.131,0,0,0,.176.039l1.35-.837a.128.128,0,0,0,.036-.2Z" transform="translate(-658.507 -334.667)" fill="#464a5f"/>
    <path id="Path_155" data-name="Path 155" d="M886.438,442.8l-.873-1.244a.126.126,0,0,0-.176-.033l-1.278.862a.126.126,0,0,0-.036.176l.8,1.23a.125.125,0,0,0,.176.039l1.35-.837a.128.128,0,0,0,.036-.193Z" transform="translate(-653.576 -338.049)" fill="#464a5f"/>
    <path id="Path_156" data-name="Path 156" d="M879.6,447.541l-.873-1.247a.128.128,0,0,0-.176-.031l-1.278.859a.131.131,0,0,0-.036.179l.8,1.23a.131.131,0,0,0,.176.039l1.35-.837a.128.128,0,0,0,.036-.193Z" transform="translate(-648.646 -341.467)" fill="#464a5f"/>
    <path id="Path_157" data-name="Path 157" d="M872.758,452.27l-.873-1.244a.126.126,0,0,0-.176-.033l-1.278.862a.126.126,0,0,0-.036.176l.8,1.23a.126.126,0,0,0,.176.039l1.35-.837a.128.128,0,0,0,.036-.192Z" transform="translate(-643.712 -344.877)" fill="#464a5f"/>
    <path id="Path_158" data-name="Path 158" d="M944.445,393.109l-.7-1a.279.279,0,0,0-.377-.07l-1.041.7a.279.279,0,0,0-.075.377l.642.99a.279.279,0,0,0,.377.084l1.1-.692a.279.279,0,0,0,.078-.388Z" transform="translate(-695.505 -302.351)" fill="#464a5f"/>
    <path id="Path_159" data-name="Path 159" d="M934.595,378.856l-.7-1a.279.279,0,0,0-.377-.07l-1.041.7a.279.279,0,0,0-.075.377l.644.99a.279.279,0,0,0,.374.084l1.1-.689a.279.279,0,0,0,.078-.391Z" transform="translate(-688.403 -292.076)" fill="#464a5f"/>
    <path id="Path_160" data-name="Path 160" d="M937.735,397.711l-.7-1.007a.279.279,0,0,0-.377-.07l-1.041.7a.279.279,0,0,0-.075.377l.644.99a.279.279,0,0,0,.374.084l1.1-.689a.279.279,0,0,0,.078-.385Z" transform="translate(-690.667 -305.668)" fill="#464a5f"/>
    <path id="Path_161" data-name="Path 161" d="M930.72,402.6l-.692-1a.279.279,0,0,0-.377-.07l-1.041.7a.279.279,0,0,0-.075.379l.642.99a.279.279,0,0,0,.377.081l1.1-.689a.279.279,0,0,0,.067-.391Z" transform="translate(-685.617 -309.193)" fill="#464a5f"/>
    <path id="Path_162" data-name="Path 162" d="M923.57,407.525l-.7-1a.279.279,0,0,0-.379-.07l-1.038.7a.279.279,0,0,0-.078.377l.644.99a.279.279,0,0,0,.377.084l1.1-.692a.279.279,0,0,0,.078-.388Z" transform="translate(-680.453 -312.745)" fill="#464a5f"/>
    <path id="Path_163" data-name="Path 163" d="M928.045,383.711l-.7-1.007a.279.279,0,0,0-.377-.07l-1.041.7a.279.279,0,0,0-.075.377l.644.99a.279.279,0,0,0,.374.084l1.1-.689A.279.279,0,0,0,928.045,383.711Z" transform="translate(-683.681 -295.573)" fill="#464a5f"/>
    <path id="Path_164" data-name="Path 164" d="M921,388.6l-.7-1a.279.279,0,0,0-.377-.07l-1.041.7a.279.279,0,0,0-.078.377l.644.99a.279.279,0,0,0,.377.084l1.1-.692A.279.279,0,0,0,921,388.6Z" transform="translate(-678.6 -299.099)" fill="#464a5f"/>
    <path id="Path_165" data-name="Path 165" d="M913.88,393.533l-.7-1a.279.279,0,0,0-.379-.07l-1.038.7a.279.279,0,0,0-.078.377l.645.993a.279.279,0,0,0,.377.084l1.1-.692a.279.279,0,0,0,.081-.391Z" transform="translate(-673.466 -302.658)" fill="#464a5f"/>
    <path id="Path_166" data-name="Path 166" d="M916.445,412.466l-.7-1a.279.279,0,0,0-.377-.07l-1.041.695a.279.279,0,0,0-.075.377l.644.99a.279.279,0,0,0,.374.084l1.1-.692A.279.279,0,0,0,916.445,412.466Z" transform="translate(-675.317 -316.31)" fill="#464a5f"/>
    <path id="Path_167" data-name="Path 167" d="M909.32,417.4l-.7-1a.279.279,0,0,0-.377-.07l-1.041.714a.279.279,0,0,0-.078.377l.644.99a.279.279,0,0,0,.377.084l1.1-.689a.279.279,0,0,0,.078-.4Z" transform="translate(-670.178 -319.864)" fill="#464a5f"/>
    <path id="Path_168" data-name="Path 168" d="M902.166,422.3l-.873-1.244a.125.125,0,0,0-.176-.033l-1.267.862a.125.125,0,0,0-.036.176l.8,1.23a.126.126,0,0,0,.176.039l1.35-.837a.131.131,0,0,0,.025-.193Z" transform="translate(-664.925 -323.268)" fill="#464a5f"/>
    <path id="Path_169" data-name="Path 169" d="M895.835,426.64l-.873-1.247a.131.131,0,0,0-.179-.031l-1.278.859a.134.134,0,0,0-.036.179l.8,1.23a.128.128,0,0,0,.176.039l1.347-.837a.126.126,0,0,0,.039-.193Z" transform="translate(-660.351 -326.397)" fill="#464a5f"/>
    <path id="Path_170" data-name="Path 170" d="M888.77,431.561l-.873-1.247a.128.128,0,0,0-.176-.031l-1.278.859a.131.131,0,0,0-.036.179l.8,1.23a.131.131,0,0,0,.176.039l1.35-.837a.123.123,0,0,0,.036-.192Z" transform="translate(-655.258 -329.945)" fill="#464a5f"/>
    <path id="Path_171" data-name="Path 171" d="M881.962,436.29l-.865-1.244a.125.125,0,0,0-.176-.033l-1.278.862a.128.128,0,0,0-.036.176l.8,1.23a.128.128,0,0,0,.176.039l1.35-.837a.126.126,0,0,0,.028-.193Z" transform="translate(-650.356 -333.355)" fill="#464a5f"/>
    <path id="Path_172" data-name="Path 172" d="M926,395.825l-.7-1a.279.279,0,0,0-.379-.07l-1.041.7a.279.279,0,0,0-.075.377l.644.99a.279.279,0,0,0,.377.081l1.1-.689a.279.279,0,0,0,.078-.388Z" transform="translate(-682.21 -304.309)" fill="#464a5f"/>
    <path id="Path_173" data-name="Path 173" d="M918.885,400.761l-.7-1a.279.279,0,0,0-.377-.073l-1.041.7a.279.279,0,0,0-.075.377l.644.99a.279.279,0,0,0,.374.084l1.1-.692a.279.279,0,0,0,.078-.388Z" transform="translate(-677.076 -307.869)" fill="#464a5f"/>
    <path id="Path_174" data-name="Path 174" d="M911.8,405.7l-.711-1a.279.279,0,0,0-.379-.07l-1.016.7a.279.279,0,0,0-.078.377l.644.99a.279.279,0,0,0,.377.084l1.1-.689a.279.279,0,0,0,.064-.391Z" transform="translate(-671.973 -311.432)" fill="#464a5f"/>
    <path id="Path_175" data-name="Path 175" d="M904.635,410.626l-.7-1a.279.279,0,0,0-.377-.07l-1.041.7a.279.279,0,0,0-.075.377l.645.99a.279.279,0,0,0,.374.084l1.1-.689a.279.279,0,0,0,.078-.391Z" transform="translate(-666.802 -314.983)" fill="#464a5f"/>
    <path id="Path_176" data-name="Path 176" d="M897.453,415.53l-.873-1.244a.128.128,0,0,0-.179-.033l-1.278.862a.128.128,0,0,0-.036.176l.8,1.233a.128.128,0,0,0,.179.036l1.347-.837a.128.128,0,0,0,.039-.193Z" transform="translate(-661.517 -318.386)" fill="#464a5f"/>
    <path id="Path_177" data-name="Path 177" d="M891.171,419.9l-.873-1.244a.126.126,0,0,0-.176-.033l-1.269.859a.131.131,0,0,0-.036.179l.8,1.23a.131.131,0,0,0,.176.039l1.35-.837a.128.128,0,0,0,.028-.193Z" transform="translate(-656.996 -321.537)" fill="#464a5f"/>
    <path id="Path_178" data-name="Path 178" d="M884.09,424.79l-.873-1.247a.131.131,0,0,0-.179-.031l-1.275.859a.131.131,0,0,0-.036.179l.8,1.23a.128.128,0,0,0,.176.039l1.35-.837a.128.128,0,0,0,.036-.192Z" transform="translate(-651.884 -325.063)" fill="#464a5f"/>
    <path id="Path_179" data-name="Path 179" d="M877.248,429.52l-.873-1.244a.128.128,0,0,0-.179-.033l-1.275.862a.126.126,0,0,0-.036.176l.8,1.233a.126.126,0,0,0,.176.036l1.35-.837a.131.131,0,0,0,.036-.193Z" transform="translate(-646.95 -328.473)" fill="#464a5f"/>
    <path id="Path_180" data-name="Path 180" d="M875.093,441.03l-.873-1.247a.131.131,0,0,0-.178-.031l-1.278.859a.131.131,0,0,0-.036.179l.8,1.23a.131.131,0,0,0,.176.039l1.35-.837a.126.126,0,0,0,.039-.193Z" transform="translate(-645.394 -336.772)" fill="#464a5f"/>
    <path id="Path_181" data-name="Path 181" d="M868.253,445.76l-.873-1.244a.128.128,0,0,0-.178-.033l-1.278.862a.128.128,0,0,0-.036.176l.8,1.23a.128.128,0,0,0,.179.039l1.347-.837a.126.126,0,0,0,.039-.193Z" transform="translate(-640.463 -340.182)" fill="#464a5f"/>
    <path id="Path_182" data-name="Path 182" d="M879.079,417.569l-.823-1.175a.173.173,0,0,0-.237-.042l-1.214.812a.173.173,0,0,0-.047.237l.753,1.161a.173.173,0,0,0,.237.05l1.272-.8a.17.17,0,0,0,.059-.243Z" transform="translate(-648.296 -319.896)" fill="#464a5f"/>
    <path id="Path_183" data-name="Path 183" d="M872.261,422.3l-.823-1.172a.17.17,0,0,0-.237-.045L870,421.9a.17.17,0,0,0-.047.234l.753,1.161a.176.176,0,0,0,.237.053l1.275-.8a.176.176,0,0,0,.047-.245Z" transform="translate(-643.386 -323.306)" fill="#464a5f"/>
    <path id="Path_184" data-name="Path 184" d="M865.384,427.04l-.837-1.174a.17.17,0,0,0-.234-.042l-1.208.812a.173.173,0,0,0-.047.237l.753,1.161a.173.173,0,0,0,.237.05l1.275-.8a.17.17,0,0,0,.061-.243Z" transform="translate(-638.418 -326.724)" fill="#464a5f"/>
    <path id="Path_185" data-name="Path 185" d="M858.567,431.77l-.873-1.247a.131.131,0,0,0-.179-.031l-1.278.859a.131.131,0,0,0-.034.179l.8,1.23a.128.128,0,0,0,.176.039l1.35-.837a.128.128,0,0,0,.036-.193Z" transform="translate(-633.481 -330.096)" fill="#464a5f"/>
    <path id="Path_186" data-name="Path 186" d="M934.8,385.923l-.745-1.077a.279.279,0,0,0-.379-.067l-2.968,2.067a.279.279,0,0,0-.073.374l.714,1.1a.279.279,0,0,0,.388.075l2.993-2.1A.279.279,0,0,0,934.8,385.923Z" transform="translate(-687.128 -297.118)" fill="#464a5f"/>
    <path id="Path_187" data-name="Path 187" d="M865.319,433.946l-.926-1.308a.126.126,0,0,0-.179-.031l-3.186,2.232a.128.128,0,0,0-.033.176l.873,1.345a.128.128,0,0,0,.181.036l3.239-2.268A.131.131,0,0,0,865.319,433.946Z" transform="translate(-636.935 -331.619)" fill="#464a5f"/>
    <path id="Path_188" data-name="Path 188" d="M891.829,398.245,890.992,397a.131.131,0,0,0-.179-.036l-7.072,4.771a.126.126,0,0,0-.036.176l.87,1.339a.128.128,0,0,0,.181.036l7.053-4.865A.128.128,0,0,0,891.829,398.245Z" transform="translate(-653.309 -305.924)" fill="#464a5f"/>
    <path id="Path_189" data-name="Path 189" d="M873.219,371.411l-3.761-5.465a.7.7,0,0,0-.965-.184l-10.359,6.955a.7.7,0,0,0-.187.974l3.833,5.622a.7.7,0,0,0,.974.184l10.286-7.117a.695.695,0,0,0,.178-.968Z" transform="translate(-634.666 -283.354)" opacity="0.1"/>
    <path id="Path_190" data-name="Path 190" d="M873.867,371.534l-3.761-5.465a.7.7,0,0,0-.965-.184L858.8,372.845a.7.7,0,0,0-.19.974l3.822,5.616a.7.7,0,0,0,.974.184l10.292-7.117a.695.695,0,0,0,.173-.968Z" transform="translate(-635.141 -283.443)" fill="#939498"/>
    <path id="Path_191" data-name="Path 191" d="M910.45,411.221l-7.979-2.661L876.88,426.337l7.92,2.581a1.451,1.451,0,0,0,1.281-.19l24.442-17a.279.279,0,0,0-.073-.511Z" transform="translate(-648.404 -314.298)" fill="#141e7a"/>
  </g>
</svg>
